<?xml version="1.0" encoding="utf-8"?>
<!-- Generator: Adobe Illustrator 27.5.0, SVG Export Plug-In . SVG Version: 6.00 Build 0)  -->
<svg version="1.1" xmlns="http://www.w3.org/2000/svg" xmlns:xlink="http://www.w3.org/1999/xlink" x="0px" y="0px"
	 viewBox="0 0 500 500" style="enable-background:new 0 0 500 500;" xml:space="preserve">
<g id="Background">
	<rect style="fill:#FFFFFF;" width="500" height="500"/>
</g>
<g id="Objects">
	<g>
		<path style="fill:#CA4456;" d="M248.501,87.964c-91.795,0-166.476,74.681-166.476,166.476
			c0,91.796,74.681,166.476,166.476,166.476c91.795,0,166.476-74.68,166.476-166.476C414.977,162.645,340.296,87.964,248.501,87.964
			"/>
		<path style="fill:#D7DEE2;" d="M347.51,459.253c0,5.659-43.297,10.247-96.708,10.247c-53.41,0-96.708-4.588-96.708-10.247
			c0-5.658,43.298-10.246,96.708-10.246C304.213,449.006,347.51,453.594,347.51,459.253z"/>
		<g>
			<g>
				<g>
					<g>
						<g>
							<polygon style="fill:#BC7D64;" points="289.688,442.79 269.588,442.908 269.588,428.279 288.875,428.04 							"/>
							<path style="fill:#3A1A04;" d="M268.048,427.518v16.166c0,0.205,0.083,0.402,0.228,0.546
								c0.143,0.144,0.338,0.224,0.542,0.224h0.005l21.682-0.129c0.211-0.001,0.413-0.089,0.557-0.243
								c0.143-0.153,0.219-0.358,0.208-0.569l-0.898-16.293c-0.022-0.409-0.362-0.728-0.769-0.728h-0.009l-20.784,0.256
								C268.388,426.753,268.048,427.097,268.048,427.518 M269.588,428.279l19.287-0.239l0.813,14.751l-20.1,0.118V428.279z"/>
						</g>
						<g>
							<path style="fill:#F9FBFC;" d="M268.784,439.969c0.027,0.024,0.054,0.049,0.08,0.073c1.098,0.997,3.385,3.073,9.776,2.484
								c7.26-0.671,11.051-3.779,12.123-4.808c1.81,0.357,9.584,2.018,18.426,5.776c9.428,4.008,10.252,7.356,10.41,9.698
								c-1.547,0.584-7.397,2.35-20.997,2.039c-12.307-0.283-25.121-2.343-30.653-3.333
								C267.92,447.636,268.316,441.847,268.784,439.969"/>
							<path style="fill:#CA4456;" d="M319.689,454.8c0.128,2.125,0.016,3.242-3.86,4.306c-4.981,1.371-30.38,2.671-47.403-2.512
								c-0.092-0.203-0.332-0.926-0.438-3.125c5.739,1.017,18.407,3.02,30.579,3.3C311.347,457.068,317.443,455.568,319.689,454.8"
								/>
							<path style="fill:#3A1A04;" d="M266.591,455.336c0.001,0.011,0.003,0.022,0.005,0.033c0.016,0.133,0.034,0.254,0.051,0.374
								c0.017,0.108,0.034,0.207,0.05,0.305c0.009,0.053,0.019,0.107,0.028,0.157c0.067,0.334,0.139,0.604,0.219,0.826
								c0.004,0.008,0.006,0.014,0.009,0.021c0.032,0.091,0.066,0.17,0.101,0.244c0.015,0.031,0.03,0.063,0.045,0.091
								c0.019,0.034,0.036,0.066,0.055,0.097c0.23,0.389,0.473,0.475,0.662,0.533c0.003,0,0.005,0.001,0.006,0.002
								c8.39,2.58,18.591,3.615,27.536,3.833c1.277,0.031,2.53,0.046,3.747,0.046c8.139,0,14.736-0.648,17.133-1.306
								c5.272-1.451,5.124-3.761,4.968-6.206c-0.015-0.237-0.031-0.48-0.042-0.73c-0.157-3.48-1.167-7.241-11.373-11.578
								c-10.226-4.346-19.068-5.936-19.155-5.951c-0.265-0.047-0.536,0.048-0.713,0.25c-0.032,0.037-3.531,3.887-11.423,4.616
								c-5.715,0.522-7.592-1.177-8.6-2.091c-0.478-0.434-0.971-0.879-1.651-0.711c-1.023,0.255-1.634,3.922-1.821,10.894
								C266.346,452.072,266.428,454.03,266.591,455.336 M267.988,453.469c5.739,1.016,18.408,3.019,30.579,3.3
								c12.779,0.299,18.876-1.202,21.122-1.97c0.128,2.125,0.016,3.242-3.86,4.306c-4.981,1.371-30.38,2.671-47.403-2.512
								C268.335,456.391,268.094,455.668,267.988,453.469 M267.95,451.897c-0.031-4.261,0.364-10.05,0.834-11.928
								c0.027,0.024,0.054,0.049,0.08,0.073c1.098,0.997,3.385,3.073,9.776,2.484c7.26-0.671,11.051-3.78,12.123-4.808
								c1.81,0.357,9.584,2.018,18.426,5.775c9.428,4.009,10.253,7.356,10.41,9.699c-1.547,0.584-7.397,2.35-20.997,2.039
								C286.295,454.947,273.481,452.887,267.95,451.897"/>
						</g>
					</g>
					<g>
						<path style="fill:#CA4456;" d="M294.885,446.078l-1.159-0.155c-0.087-0.013-0.142-0.066-0.172-0.108
							c-0.051-0.071-0.069-0.163-0.051-0.25c0.531-2.649,1.695-5.061,2.576-6.618c0.178-0.315,0.448-0.522,0.764-0.59
							c0.31-0.061,0.639,0.015,0.921,0.227l0.149,0.112c0.121,0.089,0.155,0.249,0.078,0.373c-0.802,1.302-2.236,3.918-2.824,6.806
							C295.139,446.005,295.013,446.088,294.885,446.078"/>
						<path style="fill:#CA4456;" d="M300.5,439.942c0.05-0.007,0.101-0.011,0.149-0.011c0.257,0,0.502,0.102,0.702,0.293
							c0.177,0.173,0.203,0.346,0.125,0.473h-0.001c-0.626,1.02-1.571,2.832-2.5,5.678c-0.027,0.084-0.084,0.122-0.116,0.139
							c-0.029,0.014-0.076,0.027-0.122,0.013l-1.06-0.365c-0.116-0.039-0.206-0.208-0.153-0.372c0.658-2.026,1.41-3.811,2.231-5.306
							C299.919,440.182,300.184,439.99,300.5,439.942"/>
						<path style="fill:#3A1A04;" d="M292.299,446.71c0.294,0.409,0.729,0.672,1.223,0.738l1.159,0.154
							c0.08,0.012,0.157,0.016,0.236,0.016c0.549,0,1.042-0.272,1.377-0.685c0.21,0.309,0.508,0.555,0.88,0.684l1.06,0.363
							c0.178,0.064,0.363,0.093,0.547,0.093c0.259,0,0.52-0.06,0.762-0.182c0.422-0.209,0.749-0.588,0.895-1.04
							c0.929-2.844,1.87-4.571,2.348-5.347c0.455-0.738,0.327-1.717-0.303-2.327c-0.646-0.623-1.43-0.878-2.213-0.757
							c-0.256,0.038-0.494,0.128-0.721,0.237c-0.068-0.461-0.309-0.896-0.716-1.198l-0.149-0.112
							c-0.642-0.478-1.409-0.651-2.16-0.497c-0.752,0.159-1.387,0.634-1.784,1.338c-0.938,1.655-2.174,4.225-2.746,7.072
							C291.891,445.765,292.003,446.293,292.299,446.71 M297.524,445.789c0.658-2.026,1.41-3.811,2.231-5.306
							c0.165-0.301,0.429-0.493,0.746-0.542c0.05-0.006,0.101-0.01,0.149-0.01c0.257,0,0.502,0.102,0.701,0.293
							c0.178,0.173,0.204,0.346,0.126,0.473h-0.001c-0.626,1.02-1.571,2.832-2.5,5.678c-0.027,0.084-0.084,0.122-0.116,0.139
							c-0.029,0.014-0.076,0.027-0.122,0.013l-1.06-0.365C297.561,446.122,297.471,445.954,297.524,445.789 M293.503,445.565
							c0.531-2.649,1.695-5.061,2.576-6.618c0.178-0.315,0.448-0.522,0.764-0.59c0.31-0.061,0.639,0.015,0.921,0.227l0.149,0.112
							c0.121,0.089,0.155,0.249,0.078,0.373c-0.802,1.302-2.236,3.918-2.824,6.806c-0.028,0.13-0.154,0.213-0.282,0.203
							l-1.159-0.155c-0.087-0.013-0.142-0.066-0.172-0.108C293.503,445.744,293.485,445.652,293.503,445.565"/>
					</g>
				</g>
				<g>
					<g>
						<polygon style="fill:#BC7D64;" points="215.853,442.79 235.952,442.908 235.952,428.279 216.666,428.04 						"/>
						<path style="fill:#3A1A04;" d="M236.732,426.748l-20.785-0.256h-0.009c-0.408,0-0.746,0.318-0.769,0.728l-0.899,16.293
							c-0.011,0.211,0.064,0.416,0.209,0.569c0.143,0.154,0.345,0.242,0.556,0.243l21.683,0.129h0.004
							c0.203,0,0.398-0.08,0.543-0.224c0.144-0.146,0.227-0.341,0.227-0.546v-16.166
							C237.492,427.097,237.154,426.753,236.732,426.748 M235.952,442.908l-20.1-0.118l0.813-14.751l19.287,0.239V442.908z"/>
					</g>
					<g>
						<g>
							<path style="fill:#F9FBFC;" d="M236.757,439.969c-0.026,0.024-0.053,0.049-0.08,0.073c-1.098,0.997-3.386,3.073-9.776,2.484
								c-7.259-0.671-11.05-3.779-12.123-4.808c-1.808,0.357-9.584,2.018-18.426,5.776c-9.428,4.008-10.253,7.356-10.408,9.698
								c1.546,0.584,7.396,2.35,20.996,2.039c12.307-0.283,25.12-2.343,30.651-3.333
								C237.62,447.636,237.226,441.847,236.757,439.969"/>
							<path style="fill:#CA4456;" d="M185.852,454.8c-0.128,2.125-0.016,3.242,3.86,4.306c4.98,1.371,30.38,2.671,47.402-2.512
								c0.094-0.203,0.334-0.926,0.44-3.125c-5.739,1.017-18.408,3.02-30.579,3.3C194.196,457.068,188.099,455.568,185.852,454.8"/>
							<path style="fill:#3A1A04;" d="M239.116,449.084c-0.187-6.972-0.8-10.639-1.822-10.894c-0.68-0.167-1.173,0.278-1.652,0.711
								c-1.007,0.916-2.886,2.613-8.6,2.091c-7.892-0.729-11.391-4.579-11.423-4.616c-0.177-0.202-0.447-0.297-0.713-0.25
								c-0.089,0.014-8.93,1.605-19.156,5.951c-10.207,4.338-11.215,8.099-11.373,11.578c-0.012,0.25-0.027,0.493-0.042,0.73
								c-0.156,2.445-0.303,4.755,4.968,6.206c2.397,0.658,8.994,1.306,17.131,1.306c1.218,0,2.472-0.014,3.75-0.046
								c8.945-0.219,19.145-1.253,27.535-3.833c0.002-0.001,0.005-0.002,0.007-0.002c0.19-0.058,0.432-0.145,0.663-0.533
								c0.018-0.031,0.036-0.063,0.054-0.097c0.015-0.028,0.03-0.059,0.045-0.091c0.035-0.073,0.068-0.153,0.101-0.243
								c0.003-0.007,0.006-0.014,0.009-0.022c0.079-0.221,0.152-0.491,0.218-0.826c0.009-0.05,0.02-0.104,0.029-0.157
								c0.018-0.098,0.034-0.198,0.05-0.305c0.018-0.121,0.036-0.241,0.053-0.374c0.001-0.011,0.002-0.022,0.003-0.033
								C239.113,454.03,239.196,452.073,239.116,449.084 M237.115,456.594c-17.022,5.183-42.422,3.883-47.402,2.512
								c-3.877-1.065-3.988-2.181-3.86-4.306c2.247,0.768,8.344,2.268,21.122,1.97c12.172-0.281,24.84-2.283,30.579-3.3
								C237.447,455.668,237.207,456.391,237.115,456.594 M206.939,455.23c-13.599,0.311-19.45-1.455-20.996-2.039
								c0.156-2.342,0.981-5.69,10.41-9.698c8.84-3.758,16.616-5.419,18.426-5.775c1.072,1.029,4.862,4.137,12.121,4.807
								c6.391,0.589,8.679-1.488,9.778-2.484c0.026-0.024,0.052-0.049,0.078-0.073c0.469,1.878,0.863,7.668,0.833,11.928
								C232.061,452.887,219.246,454.947,206.939,455.23"/>
						</g>
						<g>
							<path style="fill:#CA4456;" d="M210.656,446.078l1.159-0.155c0.088-0.013,0.143-0.066,0.173-0.108
								c0.051-0.071,0.069-0.163,0.052-0.25c-0.532-2.649-1.696-5.061-2.578-6.618c-0.177-0.315-0.448-0.522-0.764-0.59
								c-0.31-0.061-0.637,0.015-0.921,0.227l-0.15,0.112c-0.12,0.089-0.154,0.249-0.078,0.373c0.802,1.302,2.236,3.918,2.825,6.806
								C210.402,446.005,210.528,446.088,210.656,446.078"/>
							<path style="fill:#CA4456;" d="M205.041,439.942c-0.049-0.007-0.099-0.011-0.149-0.011c-0.256,0-0.5,0.102-0.701,0.293
								c-0.178,0.173-0.204,0.346-0.126,0.473h0.001c0.628,1.02,1.571,2.832,2.499,5.678c0.028,0.084,0.085,0.122,0.117,0.139
								c0.029,0.014,0.076,0.027,0.122,0.013l1.06-0.365c0.116-0.039,0.207-0.208,0.153-0.372c-0.659-2.026-1.409-3.811-2.229-5.306
								C205.623,440.182,205.358,439.99,205.041,439.942"/>
							<path style="fill:#3A1A04;" d="M213.55,445.261c-0.573-2.848-1.81-5.417-2.747-7.072c-0.398-0.704-1.034-1.179-1.786-1.338
								c-0.75-0.154-1.516,0.019-2.159,0.497h-0.001l-0.149,0.112c-0.406,0.302-0.648,0.738-0.715,1.199
								c-0.227-0.11-0.465-0.2-0.722-0.237c-0.785-0.121-1.568,0.134-2.214,0.757c-0.631,0.61-0.759,1.588-0.304,2.327
								c0.48,0.776,1.421,2.503,2.348,5.347c0.147,0.451,0.472,0.831,0.895,1.04c0.241,0.121,0.501,0.182,0.761,0.182
								c0.184,0,0.37-0.03,0.547-0.093l1.06-0.364c0.371-0.129,0.671-0.374,0.881-0.684c0.335,0.414,0.827,0.685,1.377,0.685
								c0.078,0,0.156-0.004,0.235-0.016l1.16-0.154c0.496-0.066,0.93-0.329,1.223-0.738
								C213.538,446.293,213.651,445.765,213.55,445.261 M207.864,446.161l-1.06,0.365c-0.047,0.014-0.094,0.002-0.123-0.013
								c-0.031-0.016-0.089-0.055-0.117-0.139c-0.928-2.848-1.871-4.658-2.499-5.678h-0.001c-0.078-0.127-0.053-0.3,0.126-0.473
								c0.201-0.192,0.445-0.293,0.701-0.293c0.05,0,0.1,0.004,0.149,0.011c0.317,0.049,0.582,0.24,0.746,0.541
								c0.821,1.495,1.571,3.28,2.23,5.306C208.072,445.954,207.98,446.122,207.864,446.161 M211.988,445.815
								c-0.031,0.042-0.085,0.095-0.172,0.107l-1.16,0.156c-0.128,0.01-0.254-0.073-0.281-0.203
								c-0.589-2.888-2.022-5.504-2.825-6.806c-0.075-0.124-0.042-0.284,0.078-0.373l0.15-0.112
								c0.283-0.211,0.611-0.288,0.921-0.227c0.315,0.068,0.587,0.275,0.764,0.59c0.882,1.557,2.046,3.969,2.577,6.618
								C212.057,445.652,212.039,445.744,211.988,445.815"/>
						</g>
					</g>
				</g>
				<g>
					<path style="fill:#6B97CA;" d="M291.33,287.326l-75.352-0.25c-0.027,11.315-0.34,141.694-0.34,146.001
						c0,3.272,8.578,3.305,13.186,3.322c0.656,0.003,1.262,0.005,1.797,0.014c0.488,0.009,0.956,0.023,1.403,0.037
						c4.109,0.128,5.638,0.174,5.769-3.91c0.169-5.326,3.22-115.805,3.251-116.921c0.011-0.417,0.352-0.749,0.769-0.749h22.325
						c0.415,0,0.756,0.33,0.77,0.746c0.145,4.639,3.591,113.645,3.506,116.543c-0.039,1.315,0.055,2.147,0.655,2.765
						c0.974,1.003,3.39,1.489,7.386,1.489c5.77,0,8.571-0.195,10.425-0.326c0.852-0.059,1.469-0.103,2.062-0.103
						c0.956,0,1.113-0.834,1.284-6.865C290.386,423.363,291.253,298.397,291.33,287.326"/>
					<path style="fill:#5873A8;" d="M274.948,315.231c5.353-1.085,11.133-2.529,16.221-5.039
						c0.084-11.749,0.143-20.321,0.161-22.866l-75.352-0.25c-0.027,11.315-0.34,141.694-0.34,146.001
						c0,3.272,8.578,3.305,13.186,3.322c0.656,0.003,1.262,0.005,1.797,0.014c0.488,0.009,0.956,0.023,1.403,0.037
						c4.109,0.128,5.638,0.174,5.769-3.91c0.169-5.326,3.22-115.805,3.251-116.921c0.011-0.417,0.352-0.749,0.769-0.749h22.325
						c0.415,0,0.756,0.33,0.77,0.746c0.145,4.639,3.591,113.645,3.506,116.543c-0.039,1.315,0.055,2.147,0.655,2.765
						c0.175,0.18,0.411,0.335,0.679,0.482c-0.265-3.277-0.197-6.594-0.041-9.851c0.31-6.484,0.792-12.919,0.747-19.416
						c-0.102-14.534-0.616-29.059-0.659-43.592c-0.349-4.574-0.469-9.162-0.285-13.748c0.192-4.778,0.756-9.46,0.555-14.244
						c-0.138-3.289-0.858-7.785,0.648-10.878c1.362-2.793,5.606-3.064,8.475-4.128c-1.895-0.708-3.536-1.616-4.546-3.564
						C274.497,315.709,274.607,315.3,274.948,315.231z"/>
					<path style="fill:#3A1A04;" d="M292.652,286.018c-0.144-0.146-0.339-0.228-0.544-0.229l-76.894-0.256
						c-0.223-0.048-0.401,0.079-0.546,0.223c-0.144,0.145-0.227,0.339-0.227,0.544c-0.004,1.423-0.343,142.294-0.343,146.777
						c0,4.806,8.859,4.839,14.719,4.861c0.649,0.002,1.248,0.005,1.775,0.014c0.482,0.007,0.942,0.023,1.384,0.036
						c0.574,0.018,1.13,0.035,1.663,0.035c3.191,0,5.538-0.618,5.691-5.436c0.162-5.095,2.96-106.395,3.23-116.178h20.829
						c0.311,9.852,3.564,112.975,3.483,115.705c-0.04,1.355,0.012,2.771,1.089,3.882c1.316,1.353,3.933,1.956,8.491,1.956
						c5.824,0,8.771-0.205,10.532-0.329c0.822-0.058,1.416-0.099,1.955-0.099c2.587,0,2.646-2.106,2.822-8.362
						c0.17-6.01,1.103-141.233,1.112-142.598C292.876,286.36,292.796,286.163,292.652,286.018 M288.941,435.985
						c-0.594,0-1.211,0.043-2.062,0.103c-1.854,0.13-4.655,0.326-10.425,0.326c-3.996,0-6.412-0.487-7.386-1.489
						c-0.6-0.618-0.694-1.45-0.655-2.765c0.085-2.898-3.36-111.904-3.506-116.543c-0.013-0.416-0.354-0.746-0.77-0.746h-22.325
						c-0.417,0-0.757,0.332-0.769,0.748c-0.031,1.116-3.081,111.596-3.251,116.922c-0.13,4.083-1.66,4.038-5.769,3.91
						c-0.448-0.013-0.916-0.028-1.403-0.037c-0.535-0.009-1.141-0.012-1.797-0.014c-4.608-0.017-13.186-0.051-13.186-3.322
						c0-4.307,0.313-134.686,0.341-146.001l75.351,0.25c-0.077,11.071-0.944,136.037-1.106,141.794
						C290.053,435.152,289.898,435.985,288.941,435.985"/>
				</g>
			</g>
			<g>
				<path style="fill:#543229;" d="M322.896,141.589c-0.239-0.113-0.404-0.342-0.434-0.606c-0.032-0.263,0.076-0.524,0.282-0.69
					c3.037-2.443,4.963-5.916,5.421-9.776c0.818-6.878-3.343-13.497-9.891-15.738c-0.257-0.087-0.448-0.304-0.505-0.569
					c-0.055-0.266,0.033-0.542,0.235-0.725c2.606-2.394,4.271-5.641,4.686-9.141c0.86-7.238-3.604-13.947-10.615-15.951
					c-0.21-0.06-0.386-0.207-0.481-0.404c-0.095-0.197-0.102-0.426-0.019-0.628c0.523-1.276,0.868-2.584,1.023-3.886
					c0.962-8.102-4.847-15.477-12.949-16.44c-1.104-0.131-2.267-0.129-3.45,0.009c-0.367,0.044-0.701-0.175-0.817-0.516
					c-1.505-4.415-5.457-7.621-10.07-8.169c-3.046-0.361-6.11,0.445-8.609,2.272c-0.239,0.174-0.559,0.198-0.821,0.056
					c-0.262-0.142-0.417-0.422-0.401-0.719c0.346-6.385-4.354-11.975-10.697-12.728c-2.258-0.268-4.554,0.109-6.629,1.093
					c-0.21,0.1-0.454,0.099-0.663-0.001c-0.209-0.101-0.362-0.291-0.416-0.517c-1.161-4.872-5.468-8.276-10.474-8.276
					c-5.148,0-9.594,3.664-10.573,8.712c-0.039,0.201-0.157,0.378-0.328,0.492c-0.17,0.115-0.38,0.156-0.58,0.116
					c-1.124-0.226-2.268-0.34-3.401-0.34c-6.915,0-13.13,4.114-15.832,10.48c-0.154,0.364-0.56,0.554-0.937,0.434
					c-4.101-1.273-8.515-0.665-12.11,1.675c-3.642,2.37-5.99,6.22-6.439,10.562c-0.073,0.712-0.427,1.347-0.997,1.789
					c-0.573,0.445-1.312,0.636-2.033,0.529c-1.258-0.191-2.55-0.204-3.835-0.033c-5.994,0.783-10.874,5.717-11.601,11.731
					c-0.381,3.138,0.308,6.205,1.993,8.869c0.127,0.202,0.154,0.45,0.073,0.674c-0.081,0.224-0.262,0.397-0.487,0.47
					c-5.61,1.802-9.378,6.972-9.378,12.864c0,4.597,2.312,8.837,6.187,11.344c0.209,0.135,0.34,0.365,0.351,0.614
					c0.01,0.248-0.1,0.488-0.297,0.641c-4.021,3.126-6.328,7.825-6.328,12.89c0,3.776,1.32,7.46,3.717,10.373
					c0.26,0.314,0.228,0.776-0.071,1.053c-3.344,3.103-5.185,7.308-5.185,11.84c0,5.663,3.04,10.986,7.933,13.893
					c0.213,0.126,0.352,0.346,0.374,0.592c0.022,0.246-0.075,0.488-0.261,0.65c-3.102,2.706-4.881,6.603-4.881,10.695
					c0,5.662,3.36,10.777,8.563,13.031c0.267,0.114,0.446,0.371,0.462,0.661c0.452,7.814,6.931,13.936,14.752,13.936
					c1.717,0,3.429-0.309,5.089-0.918c0.383-0.143,0.812,0.043,0.973,0.419c2.299,5.362,7.312,9.12,13.082,9.804
					c3.749,0.443,7.563-0.43,10.739-2.468c0.128-0.082,0.272-0.12,0.415-0.12c0.238,0,0.473,0.11,0.622,0.316
					c2.688,3.687,6.646,6.011,11.146,6.546c5.626,0.666,11.269-1.724,14.732-6.24c0.15-0.195,0.371-0.317,0.633-0.301
					c0.246,0.006,0.476,0.131,0.613,0.336c2.32,3.398,5.981,5.625,10.046,6.108c5.621,0.671,11.097-2.067,13.948-6.966
					c0.147-0.251,0.427-0.399,0.712-0.382c6.072,0.364,11.663-2.943,14.258-8.438c0.152-0.324,0.514-0.497,0.862-0.423
					c0.486,0.107,0.979,0.192,1.469,0.25c8.103,0.96,15.477-4.848,16.438-12.949c0.075-0.626,0.1-1.29,0.083-2.091
					c-0.005-0.211,0.077-0.415,0.228-0.564c0.151-0.149,0.353-0.231,0.568-0.222c7.601,0.26,14.3-5.455,15.201-13.032
					c0.463-3.909-0.618-7.768-3.048-10.869c-0.133-0.17-0.189-0.391-0.152-0.605s0.164-0.402,0.347-0.52
					c3.787-2.398,6.26-6.319,6.788-10.757C331.992,150.386,328.637,144.317,322.896,141.589"/>
				<path style="fill:#3A1A04;" d="M332.773,156.872c0.78-6.574-2.48-12.917-8.184-16.138c2.843-2.636,4.644-6.158,5.104-10.035
					c0.854-7.187-3.215-14.118-9.783-16.938c2.381-2.535,3.898-5.773,4.308-9.234c0.916-7.714-3.644-14.882-10.921-17.363
					c0.411-1.156,0.689-2.333,0.83-3.507c1.06-8.947-5.353-17.088-14.299-18.15c-1.032-0.123-2.109-0.142-3.201-0.051
					c-1.83-4.673-6.14-8.03-11.135-8.624c-2.956-0.353-5.915,0.27-8.475,1.757c-0.345-6.565-5.394-12.085-12.052-12.876
					c-2.257-0.269-4.528,0.032-6.636,0.868C256.716,41.484,252.016,38,246.601,38c-5.627,0-10.523,3.833-11.918,9.217
					c-0.983-0.157-1.978-0.236-2.965-0.236c-7.305,0-13.894,4.215-16.97,10.795c-4.351-1.152-8.961-0.42-12.748,2.045
					c-4.034,2.625-6.634,6.887-7.13,11.694c-0.031,0.289-0.175,0.549-0.408,0.731c-0.246,0.19-0.552,0.268-0.861,0.221
					c-1.401-0.21-2.835-0.223-4.264-0.036c-6.681,0.872-12.119,6.369-12.931,13.071c-0.385,3.175,0.215,6.286,1.735,9.055
					c-5.747,2.252-9.546,7.766-9.546,14.008c0,4.773,2.239,9.201,6.037,12.043c-3.904,3.403-6.122,8.248-6.122,13.446
					c0,3.896,1.283,7.699,3.627,10.792c-3.292,3.312-5.166,7.817-5.166,12.474c0,5.864,2.975,11.395,7.826,14.671
					c-2.974,2.95-4.661,6.962-4.661,11.159c0,6.12,3.542,11.662,9.062,14.251c0.726,8.402,7.777,14.916,16.256,14.916
					c1.665,0,3.324-0.262,4.941-0.779c2.633,5.518,7.943,9.352,14.021,10.074c3.869,0.459,7.797-0.367,11.144-2.328
					c2.9,3.659,7.153,6.051,11.778,6.6c0.685,0.082,1.369,0.121,2.051,0.121c5.117,0,10.065-2.252,13.44-6.161
					c2.58,3.301,6.364,5.448,10.532,5.944c6.086,0.722,11.999-2.142,15.219-7.317c6.285,0.203,12.107-3.194,15.004-8.796
					c0.342,0.063,0.684,0.115,1.025,0.156c8.943,1.062,17.087-5.351,18.15-14.298c0.057-0.477,0.088-0.968,0.095-1.509
					c8.08-0.117,15.022-6.3,15.985-14.398c0.478-4.041-0.537-8.034-2.87-11.336C329.758,165.614,332.223,161.497,332.773,156.872
					 M324.456,167.447c-0.184,0.118-0.31,0.305-0.347,0.519s0.019,0.435,0.152,0.606c2.43,3.101,3.511,6.96,3.048,10.869
					c-0.901,7.577-7.598,13.292-15.201,13.032c-0.215-0.009-0.416,0.073-0.568,0.222c-0.151,0.149-0.233,0.353-0.228,0.564
					c0.018,0.801-0.008,1.465-0.083,2.091c-0.961,8.101-8.335,13.908-16.438,12.949c-0.489-0.058-0.983-0.143-1.469-0.25
					c-0.348-0.075-0.71,0.098-0.862,0.423c-2.595,5.495-8.186,8.802-14.258,8.438c-0.285-0.018-0.566,0.13-0.712,0.382
					c-2.851,4.899-8.328,7.637-13.948,6.966c-4.065-0.483-7.726-2.71-10.045-6.108c-0.139-0.204-0.369-0.328-0.614-0.336
					c-0.263-0.016-0.483,0.105-0.632,0.301c-3.465,4.516-9.107,6.906-14.733,6.239c-4.499-0.535-8.457-2.858-11.145-6.546
					c-0.15-0.206-0.385-0.316-0.622-0.316c-0.143,0-0.287,0.039-0.415,0.121c-3.175,2.038-6.99,2.911-10.738,2.468
					c-5.769-0.685-10.783-4.441-13.082-9.804c-0.161-0.376-0.59-0.56-0.973-0.419c-1.659,0.609-3.372,0.917-5.088,0.917
					c-7.822,0-14.301-6.122-14.753-13.935c-0.017-0.29-0.195-0.546-0.462-0.661c-5.202-2.254-8.564-7.369-8.564-13.031
					c0-4.091,1.78-7.989,4.882-10.695c0.186-0.162,0.284-0.404,0.261-0.65c-0.022-0.246-0.161-0.466-0.374-0.592
					c-4.894-2.907-7.933-8.23-7.933-13.893c0-4.532,1.841-8.736,5.186-11.84c0.299-0.277,0.329-0.739,0.071-1.053
					c-2.397-2.913-3.717-6.596-3.717-10.373c0-5.065,2.307-9.763,6.327-12.89c0.197-0.154,0.307-0.393,0.297-0.641
					c-0.012-0.249-0.142-0.478-0.351-0.613c-3.874-2.508-6.187-6.748-6.187-11.345c0-5.891,3.769-11.061,9.379-12.863
					c0.226-0.073,0.407-0.246,0.488-0.47c0.081-0.224,0.053-0.472-0.074-0.675c-1.685-2.664-2.374-5.731-1.993-8.869
					c0.729-6.014,5.607-10.948,11.601-11.731c1.286-0.17,2.577-0.158,3.835,0.033c0.722,0.107,1.46-0.084,2.034-0.529
					c0.569-0.442,0.923-1.077,0.997-1.789c0.449-4.342,2.796-8.192,6.438-10.562c3.596-2.339,8.009-2.948,12.11-1.674
					c0.378,0.118,0.783-0.071,0.937-0.435c2.702-6.367,8.917-10.481,15.831-10.481c1.134,0,2.279,0.114,3.401,0.34
					c0.202,0.04,0.411-0.001,0.58-0.115c0.17-0.115,0.289-0.293,0.328-0.492c0.98-5.049,5.427-8.714,10.574-8.714
					c5.005,0,9.313,3.404,10.475,8.276c0.053,0.228,0.206,0.416,0.415,0.517c0.21,0.1,0.452,0.101,0.663,0.001
					c2.075-0.984,4.371-1.361,6.629-1.093c6.344,0.754,11.043,6.344,10.697,12.728c-0.016,0.296,0.139,0.576,0.401,0.718
					c0.263,0.143,0.582,0.12,0.821-0.055c2.499-1.828,5.562-2.633,8.609-2.273c4.613,0.548,8.565,3.755,10.07,8.169
					c0.116,0.341,0.45,0.56,0.817,0.516c1.184-0.138,2.347-0.141,3.45-0.009c8.102,0.962,13.912,8.338,12.949,16.44
					c-0.154,1.303-0.499,2.61-1.023,3.886c-0.083,0.202-0.076,0.431,0.019,0.628c0.097,0.197,0.272,0.344,0.481,0.404
					c7.011,2.005,11.475,8.713,10.615,15.953c-0.415,3.499-2.079,6.745-4.686,9.139c-0.202,0.184-0.29,0.46-0.235,0.725
					c0.057,0.266,0.247,0.483,0.505,0.571c6.548,2.24,10.709,8.859,9.891,15.737c-0.458,3.859-2.384,7.332-5.421,9.775
					c-0.206,0.168-0.313,0.427-0.282,0.69c0.031,0.264,0.195,0.493,0.434,0.606c5.741,2.728,9.096,8.797,8.348,15.102
					C330.716,161.128,328.242,165.05,324.456,167.447"/>
			</g>
			<g>
				<g>
					<path style="fill:#F9FBFC;" d="M265.793,245.396c0.275-3.813,0.859-7.412,1.365-11.1c1.06-7.334,2.212-14.646,3.374-21.96
						c0.569-3.564,1.135-6.953,1.674-10.032c0.137-0.77,0.27-1.521,0.399-2.249c0.066-0.364,0.13-0.724,0.193-1.078
						c0.006-0.034,0.012-0.067,0.018-0.101c-5.679-0.371-10.496-0.416-10.568-0.416c-0.424-0.003-0.764-0.347-0.764-0.77v-15.995
						h-16.166v15.396c0,0.418-0.333,0.76-0.751,0.77c-3.913,0.097-7.358,0.241-10.453,0.455c0.053,0.267,0.108,0.531,0.161,0.8
						c0.338,1.763,0.687,3.59,1.045,5.46c1.414,7.686,2.699,15.396,3.81,23.137c1.077,7.744,2.051,15.514,2.276,23.384l0.013,2.957
						l-0.081,2.932l-0.216,5.859c-0.159,3.905-0.355,7.804-0.56,11.704c-0.338,6.337-0.721,12.67-1.121,19.002
						c10.65,0.609,22.142,0.132,31.496-0.567c-1.717-12.107-3.333-24.232-4.507-36.424
						C266.12,252.856,265.781,249.18,265.793,245.396"/>
					<path style="fill:#EFD860;" d="M239.896,256.942l0.08-2.92l-0.013-2.897c-0.22-7.743-1.189-15.497-2.262-23.209
						c-1.105-7.714-2.387-15.408-3.8-23.077c-0.347-1.868-0.686-3.69-1.014-5.453c-0.065-0.349-0.131-0.697-0.195-1.041
						c0.001-0.01-0.001-0.016-0.01-0.015c-0.008,0-0.001-0.002-0.021-0.001l-0.317,0.018c-0.846,0.053-1.677,0.128-2.484,0.22
						c-3.237,0.366-6.12,0.97-8.498,1.618c-4.768,1.295-7.493,2.77-7.605,2.553l0.001,0.022c-6.637,3.179-12.364,8.381-21.79,16.955
						l-2.84,2.581c-5.131,4.653-8.917,8.58-11.717,11.87l-0.091-0.124c0.069,0.073-0.132,0.403-0.549,0.936
						c-0.427,0.517-1.046,1.267-1.809,2.192c-0.391,0.451-0.795,0.962-1.213,1.521c-0.214,0.276-0.435,0.56-0.662,0.853
						c-0.208,0.304-0.424,0.616-0.646,0.938c-0.89,1.274-1.752,2.749-2.366,4.385c-1.115,2.769-1.039,5.877,0.199,8.594
						c1.203,2.728,3.164,5.168,5.357,7.288c4.492,4.225,9.676,7.768,14.888,11.176c2.618,1.697,5.281,3.33,7.961,4.93l4.045,2.362
						l1.775,1.006l0.075,0.042l0.096-0.534l3.238-18.04l-12.171-8.759c-5.971-4.298-10.622-8.045-10.389-8.369
						c0.133-0.183,1.822,0.784,4.352,2.443l25.019-21.311c-0.067-1.081-0.131-2.121-0.19-3.071
						c-0.281-4.977-0.386-8.063-0.186-8.082c0.197-0.018,0.662,3.038,1.203,7.998c0.539,4.96,1.162,11.826,1.626,19.43
						c0.23,3.902,0.433,7.806,0.535,11.722c0.044,1.962,0.086,3.914,0.015,5.901c-0.081,1.974-0.255,3.932-0.466,5.883
						c-0.879,7.801-2.268,15.497-3.702,23.178l-1.092,5.753l-0.538,2.873c-0.165,0.934-0.361,1.964-0.454,2.794
						c0.002-0.01-0.004-0.007,0.009,0c0.115,0.077,0.327,0.205,0.518,0.3c0.402,0.2,0.831,0.389,1.271,0.555
						c0.882,0.338,1.794,0.631,2.717,0.898c1.849,0.526,3.736,0.948,5.637,1.311c3.8,0.747,7.633,1.141,11.485,1.052
						c0.961-0.025,1.92-0.075,2.874-0.16c0.477-0.043,0.953-0.094,1.423-0.158l0.123-0.015l0.011-0.174l0.389-5.84
						c0.507-7.787,0.979-15.577,1.395-23.367c0.205-3.896,0.4-7.793,0.559-11.689L239.896,256.942z"/>
					<path style="fill:#EFD860;" d="M333.029,211.812c0.002-0.251-0.003-0.483-0.015-0.663c-0.007-0.081,0.013-0.014-0.013-0.045
						c-0.123-0.079-0.347-0.173-0.551-0.248c-1.74-0.616-3.702-1.003-5.601-1.397c-1.916-0.383-3.846-0.725-5.779-1.049
						l-4.661-0.741l-1.966,23.13c-0.65,7.635-1.498,13.797-1.895,13.763c-0.334-0.028-0.241-4.428,0.182-10.361
						c-4.367-5.747-7.801-10.822-10.835-15.313c-6.414-9.491-10.654-15.743-16.936-18.221c0.001,0.004,0.007,0.013,0.005,0.017
						c-0.058,0.097-0.717-0.2-1.982-0.511c-1.263-0.322-3.127-0.663-5.456-0.943c-0.582-0.064-1.194-0.13-1.83-0.201
						c-0.318-0.028-0.644-0.059-0.975-0.089l-0.501-0.041c-0.129-0.009-0.087-0.002-0.138-0.003
						c-0.037-0.011-0.039,0.022-0.037,0.055c-0.005,0.053,0.009-0.019-0.029,0.227c-0.052,0.355-0.105,0.716-0.159,1.082
						c-0.11,0.733-0.222,1.485-0.338,2.258c-0.48,3.089-1.007,6.483-1.562,10.046c-1.16,7.308-2.313,14.62-3.37,21.938
						c-0.504,3.641-1.093,7.362-1.351,10.932c-0.011,3.618,0.323,7.328,0.631,10.995c1.417,14.708,3.483,29.371,5.595,44.017
						l0.398,2.75l0.093,0.662l0.34,0.036l0.657,0.033c1.796,0.039,3.645-0.068,5.475-0.191c1.833-0.132,3.671-0.299,5.496-0.506
						c1.794-0.205,3.564-0.577,5.246-1.164c1.655-0.607,3.289-1.44,4.45-2.627c0.136-0.149,0.266-0.299,0.369-0.45
						c0.05-0.068,0.102-0.174,0.096-0.154l-0.004-0.081c-0.003-0.36-0.069-0.843-0.126-1.278c-0.127-0.898-0.277-1.806-0.44-2.712
						c-0.65-3.628-1.385-7.257-2.112-10.883c-1.453-7.258-2.974-14.501-4.255-21.815c-0.308-1.837-0.622-3.655-0.789-5.564
						c-0.097-1.911-0.056-3.768,0.011-5.627c0.131-3.714,0.358-7.412,0.6-11.11c0.49-7.205,1.098-13.711,1.625-18.414
						c0.527-4.701,0.972-7.598,1.171-7.58c0.199,0.018,0.113,2.945-0.153,7.666c-0.212,3.766-0.542,8.685-0.914,14.167
						c0.16,0.245,0.285,0.474,0.374,0.634c5.352,9.767,13.336,18.023,20.798,21.999l-0.005,0.096
						c0.123-0.175,1.459,0.588,3.817,1.289c1.177,0.335,2.594,0.686,4.18,0.815c1.577,0.11,3.336-0.001,4.945-0.692
						c1.661-0.689,2.953-2.046,3.747-3.692c0.465-0.792,0.664-1.722,0.951-2.607c0.214-0.934,0.404-1.892,0.578-2.846
						c0.66-3.838,1.099-7.737,1.463-11.64c0.71-7.809,1.177-15.655,1.423-23.492l0.062-2.933L333.029,211.812z"/>
					<path style="fill:#D69C47;" d="M214.334,222.723c-0.395-1.671-0.751-3.352-1.085-5.037c-0.126,0.176-0.252,0.351-0.376,0.53
						c-0.518,0.752-1.024,1.511-1.542,2.264c-0.967,1.405-1.995,2.678-3.146,3.941c-4.028,4.423-8.412,8.536-13.184,12.152
						c-1.573,1.192-10.561,6.093-8.458,8.589c0.746,0.427,1.751,1.054,2.954,1.843l25.019-21.311
						C214.452,224.649,214.391,223.646,214.334,222.723z"/>
					<path style="fill:#D69C47;" d="M228.23,296.75c-2.078-3.573-3.978-7.768-4.977-11.787c-0.893-3.596,0.529-6.789,3.324-9.153
						c1.048-0.886,2.784-1.862,2.986-3.358c0.349-2.59-1.124-5.58-1.917-7.992c-1.805-5.502-3.738-10.959-5.629-16.432
						c-2.158-6.243-4.248-12.521-6.019-18.881c0.346,3.825,0.689,8.181,0.971,12.82c0.23,3.902,0.433,7.806,0.535,11.722
						c0.044,1.962,0.086,3.914,0.015,5.901c-0.081,1.974-0.255,3.932-0.466,5.883c-0.879,7.801-2.268,15.497-3.702,23.178
						l-1.092,5.753l-0.538,2.873c-0.165,0.934-0.361,1.964-0.454,2.794c0.002-0.01-0.004-0.007,0.009,0
						c0.115,0.077,0.327,0.205,0.518,0.3c0.402,0.2,0.831,0.389,1.271,0.555c0.882,0.338,1.794,0.631,2.717,0.898
						c1.849,0.526,3.736,0.948,5.637,1.311c3.8,0.747,7.633,1.141,11.485,1.052c0.508-0.013,1.013-0.056,1.519-0.085
						C232,302.061,229.897,299.617,228.23,296.75z"/>
					<path style="fill:#D69C47;" d="M318.826,253.441c-8.617-1.518-15.702-8.823-19.051-16.633
						c-2.967-6.918-4.281-14.508-7.911-21.085c-0.027,1.327-0.116,3.279-0.254,5.714c-0.212,3.766-0.542,8.685-0.914,14.167
						c0.16,0.245,0.285,0.474,0.374,0.634c5.352,9.767,13.336,18.023,20.798,21.999l-0.005,0.096
						c0.123-0.175,1.459,0.588,3.817,1.289c1.177,0.335,2.594,0.686,4.18,0.815c1.577,0.11,3.336-0.001,4.945-0.692
						c1.661-0.689,2.953-2.046,3.747-3.692c0.465-0.792,0.664-1.722,0.951-2.607c0.083-0.356,0.145-0.723,0.22-1.084
						C326.319,253.731,322.468,254.081,318.826,253.441z"/>
					<path style="fill:#3A1A04;" d="M334.473,211.797c0.003-0.241,0-0.498-0.023-0.811c0.059-0.436-0.335-0.885-0.699-1.117
						c-0.297-0.176-0.533-0.264-0.789-0.362c-1.969-0.694-3.885-1.055-5.83-1.463c-1.938-0.387-3.88-0.73-5.823-1.057l-2.918-0.474
						l-1.462-0.225l-1.151-0.171l-0.366-0.054l-0.18-0.027c-0.049,0.007-0.155-0.058-0.133,0.036l-0.065,0.732l-2.03,23.873
						c-0.034,0.407-0.068,0.807-0.1,1.204c-3.841-5.135-6.954-9.739-9.736-13.854c-7.713-11.416-12.368-18.305-21.306-19.816
						c-7.208-1.009-16.195-1.234-18.84-1.28v-16.005c0-0.425-0.344-0.77-0.77-0.77h-17.705c-0.425,0-0.77,0.345-0.77,0.77v15.415
						c-29.27,0.787-33.439,4.579-52.847,22.234l-2.838,2.581c-9.636,8.738-14.7,15.021-17.336,19.383
						c-0.772,1.113-1.494,2.384-2.035,3.821c-1.244,3.039-1.153,6.693,0.224,9.669c1.333,3.009,3.39,5.536,5.68,7.757
						c4.642,4.362,9.855,7.912,15.108,11.352c2.636,1.709,5.313,3.349,8.007,4.959l4.065,2.374l2.312,1.303l0.951,0.526l0.257,0.141
						c0.035,0.011,0.1,0.081,0.112,0.04l0.027-0.145l0.104-0.574l0.319-1.775l3.4-18.935l-12.909-9.291
						c-2.006-1.444-3.898-2.76-5.545-3.868l23.803-20.275c0.26,4.199,0.566,9.135,0.894,14.44c0.229,3.891,0.431,7.784,0.533,11.671
						c0.045,1.94,0.085,3.893,0.015,5.808c-0.08,1.924-0.251,3.858-0.459,5.785c-0.87,7.72-2.255,15.401-3.685,23.066l-1.091,5.752
						l-0.541,2.882c-0.171,0.988-0.356,1.874-0.476,2.984c-0.047,0.261,0.054,0.47,0.098,0.694c0.115,0.206,0.296,0.358,0.474,0.513
						c0.278,0.21,0.495,0.318,0.736,0.446c0.471,0.236,0.939,0.438,1.409,0.617c0.94,0.362,1.888,0.666,2.841,0.939
						c1.906,0.543,3.83,0.973,5.765,1.343c3.857,0.76,7.832,1.169,11.788,1.076c0.991-0.024,1.981-0.076,2.97-0.165
						c0.496-0.045,0.991-0.096,1.488-0.165c0.297-0.055,0.889-0.103,1.281-0.243l0.099-1.278l0.389-5.845
						c0.06-0.936,0.116-1.875,0.177-2.813c3.502,0.206,7.086,0.298,10.655,0.298c7.439,0,14.8-0.382,21.161-0.867
						c0.289,2.033,0.581,4.065,0.874,6.097l0.397,2.747l0.099,0.692c0.025,0.263,0.098,0.451,0.158,0.658
						c0.086,0.188,0.281,0.313,0.475,0.398c0.194,0.074,0.47,0.125,0.633,0.147l0.381,0.04c0.246,0.019,0.49,0.031,0.729,0.037
						c1.905,0.041,3.757-0.069,5.618-0.195c1.858-0.133,3.708-0.299,5.559-0.51c1.882-0.216,3.756-0.606,5.569-1.239
						c1.798-0.671,3.569-1.529,5.015-2.996c0.176-0.193,0.35-0.393,0.509-0.622c0.082-0.122,0.147-0.219,0.254-0.446
						c0.031-0.212,0.121-0.489,0.092-0.596c-0.008-0.568-0.08-1.003-0.14-1.484c-0.131-0.934-0.285-1.852-0.447-2.768
						c-0.656-3.658-1.392-7.286-2.118-10.916c-1.453-7.258-2.974-14.506-4.249-21.774c-0.304-1.813-0.617-3.646-0.77-5.427
						c-0.09-1.784-0.055-3.632,0.013-5.471c0.13-3.683,0.354-7.374,0.596-11.063c0.035-0.511,0.069-1.01,0.103-1.514
						c7.332,12.617,18.916,22.539,28.003,23.828c3.567,0.505,6.16-0.366,8.028-1.718c1.439-0.908,2.587-2.265,3.301-3.755
						c0.246-0.429,0.422-0.878,0.575-1.332c0.421-1.008,0.584-1.727,0.588-1.753c0.022-0.096,0.012-0.194-0.005-0.29
						c0.182-0.827,0.353-1.649,0.503-2.475c0.672-3.91,1.113-7.831,1.479-11.756c0.713-7.851,1.183-15.709,1.429-23.586l0.063-2.962
						L334.473,211.797z M239.12,274.474c-0.415,7.79-0.887,15.58-1.394,23.367l-0.389,5.84l-0.013,0.174l-0.122,0.015
						c-0.47,0.065-0.946,0.115-1.422,0.158c-0.955,0.085-1.913,0.135-2.874,0.16c-3.853,0.088-7.687-0.305-11.487-1.052
						c-1.9-0.363-3.788-0.785-5.636-1.311c-0.922-0.266-1.835-0.56-2.717-0.898c-0.441-0.166-0.87-0.355-1.272-0.555
						c-0.191-0.095-0.405-0.224-0.519-0.3c-0.012-0.007-0.005-0.01-0.007,0c0.093-0.83,0.287-1.861,0.454-2.794l0.538-2.873
						l1.092-5.753c1.432-7.68,2.822-15.377,3.702-23.177c0.21-1.952,0.384-3.91,0.466-5.884c0.071-1.987,0.03-3.94-0.015-5.901
						c-0.102-3.916-0.305-7.82-0.536-11.722c-0.462-7.604-1.086-14.469-1.626-19.43c-0.54-4.959-1.005-8.015-1.203-7.997
						c-0.199,0.018-0.094,3.105,0.188,8.082c0.058,0.95,0.121,1.99,0.19,3.07l-25.019,21.312c-2.531-1.659-4.221-2.626-4.354-2.442
						c-0.233,0.324,4.42,4.07,10.391,8.368l12.17,8.759l-3.237,18.04l-0.096,0.534l-0.074-0.042l-1.775-1.006l-4.045-2.362
						c-2.681-1.6-5.342-3.233-7.961-4.93c-5.212-3.408-10.396-6.952-14.888-11.176c-2.195-2.12-4.154-4.56-5.357-7.288
						c-1.237-2.716-1.314-5.825-0.2-8.594c0.616-1.637,1.476-3.112,2.368-4.385c0.221-0.322,0.436-0.635,0.645-0.938
						c0.228-0.294,0.449-0.577,0.662-0.853c0.419-0.559,0.822-1.069,1.214-1.521c0.762-0.925,1.38-1.674,1.808-2.192
						c0.418-0.532,0.617-0.863,0.548-0.935l0.092,0.123c2.8-3.289,6.586-7.217,11.716-11.87l2.84-2.581
						c9.428-8.576,15.155-13.778,21.79-16.955l-0.001-0.023c0.112,0.216,2.838-1.258,7.607-2.554
						c2.379-0.647,5.261-1.252,8.496-1.619c0.809-0.093,1.64-0.166,2.485-0.221l0.317-0.018c0.02,0,0.014,0.001,0.02,0.002
						c0.01-0.002,0.013,0.005,0.011,0.014c0.064,0.345,0.129,0.692,0.195,1.043c0.327,1.761,0.666,3.585,1.013,5.453
						c1.412,7.67,2.693,15.363,3.8,23.077c1.073,7.712,2.041,15.466,2.262,23.209l0.012,2.897l-0.079,2.92l-0.217,5.843
						C239.521,266.681,239.326,270.578,239.12,274.474 M239.44,293.551c0.401-6.332,0.784-12.665,1.122-19.002
						c0.205-3.901,0.401-7.8,0.56-11.704l0.216-5.859l0.08-2.932l-0.013-2.957c-0.227-7.87-1.199-15.639-2.276-23.384
						c-1.11-7.74-2.396-15.451-3.81-23.136c-0.357-1.871-0.707-3.697-1.044-5.461c-0.055-0.269-0.109-0.534-0.163-0.8
						c3.097-0.214,6.541-0.358,10.455-0.455c0.418-0.011,0.75-0.353,0.75-0.77v-15.396h16.166v15.995
						c0,0.423,0.342,0.766,0.765,0.77c0.071,0,4.889,0.044,10.568,0.414c-0.006,0.035-0.012,0.068-0.018,0.102
						c-0.063,0.353-0.128,0.712-0.193,1.077c-0.131,0.729-0.263,1.48-0.399,2.25c-0.539,3.079-1.104,6.469-1.674,10.033
						c-1.162,7.312-2.314,14.625-3.374,21.959c-0.506,3.688-1.09,7.288-1.365,11.1c-0.012,3.783,0.327,7.46,0.637,11.165
						c1.174,12.192,2.79,24.316,4.507,36.424C261.583,293.683,250.09,294.16,239.44,293.551 M332.968,215.469
						c-0.246,7.838-0.713,15.684-1.423,23.492c-0.364,3.902-0.804,7.801-1.464,11.64c-0.174,0.954-0.363,1.912-0.577,2.844
						c-0.287,0.886-0.486,1.816-0.951,2.608c-0.794,1.646-2.086,3.003-3.747,3.692c-1.61,0.691-3.368,0.801-4.946,0.692
						c-1.585-0.129-3.001-0.479-4.179-0.815c-2.358-0.701-3.694-1.464-3.816-1.289l0.004-0.096
						c-7.462-3.976-15.446-12.234-20.798-21.999c-0.089-0.161-0.214-0.39-0.374-0.634c0.371-5.483,0.702-10.401,0.913-14.167
						c0.267-4.721,0.353-7.648,0.153-7.666c-0.198-0.018-0.643,2.879-1.17,7.58c-0.527,4.703-1.135,11.209-1.625,18.414
						c-0.242,3.698-0.469,7.396-0.6,11.11c-0.068,1.859-0.108,3.716-0.011,5.627c0.166,1.909,0.481,3.727,0.789,5.564
						c1.282,7.314,2.803,14.557,4.255,21.815c0.727,3.627,1.462,7.255,2.112,10.883c0.163,0.906,0.313,1.814,0.44,2.712
						c0.057,0.435,0.123,0.918,0.126,1.278l0.004,0.081c0.005-0.02-0.046,0.086-0.096,0.154c-0.103,0.151-0.233,0.3-0.369,0.45
						c-1.161,1.187-2.795,2.02-4.45,2.627c-1.682,0.587-3.453,0.959-5.246,1.164c-1.825,0.207-3.663,0.374-5.496,0.506
						c-1.83,0.122-3.679,0.229-5.475,0.191l-0.657-0.033l-0.34-0.036l-0.093-0.662l-0.398-2.75
						c-2.112-14.646-4.179-29.308-5.595-44.017c-0.308-3.667-0.641-7.377-0.631-10.995c0.258-3.57,0.847-7.291,1.351-10.932
						c1.057-7.319,2.21-14.63,3.37-21.938c0.555-3.564,1.082-6.958,1.562-10.046c0.116-0.773,0.228-1.525,0.338-2.258
						c0.054-0.366,0.107-0.727,0.159-1.082c0.038-0.245,0.023-0.174,0.029-0.227c-0.002-0.031,0-0.066,0.037-0.054
						c0.05,0.001,0.009-0.006,0.138,0.003l0.501,0.041c0.331,0.03,0.656,0.061,0.975,0.089c0.636,0.07,1.248,0.137,1.83,0.201
						c2.329,0.28,4.193,0.621,5.456,0.943c1.266,0.312,1.925,0.609,1.981,0.511c0.004-0.004-0.003-0.013-0.004-0.017
						c6.283,2.478,10.523,8.73,16.936,18.221c3.034,4.49,6.468,9.565,10.835,15.312c-0.423,5.934-0.515,10.334-0.183,10.362
						c0.398,0.034,1.246-6.128,1.896-13.763l1.966-23.13l4.661,0.741c1.933,0.324,3.863,0.666,5.779,1.049
						c1.899,0.394,3.86,0.781,5.601,1.397c0.204,0.075,0.428,0.169,0.551,0.248c0.026,0.031,0.006-0.036,0.013,0.046
						c0.013,0.178,0.017,0.411,0.015,0.662l0.001,0.724L332.968,215.469z"/>
				</g>
				<g>
					<path style="fill:#F9FBFC;" d="M281.809,236.779c2.6-3.318,4.331-5.82,2.893-7.804c-0.395-0.544-0.924-0.747-1.637-0.617
						c-1.227,0.224-2.406,1.36-2.64,2.225c-0.09,0.338-0.388,0.573-0.738,0.583c-0.357,0.007-0.67-0.206-0.783-0.542
						c-0.296-0.896-0.998-1.972-2.651-2.016c-0.028-0.001-0.055-0.001-0.082-0.001c-0.717,0-1.198,0.26-1.468,0.795
						c-0.561,1.114-0.187,3.446,1.612,5.753c1.367,1.752,2.572,3.202,3.463,3.202h0.001
						C280.312,238.358,280.976,237.842,281.809,236.779"/>
					<path style="fill:#3A1A04;" d="M285.824,228.162c-0.709-0.98-1.775-1.392-3.009-1.168c-1.205,0.221-2.418,1.046-3.144,2.048
						c-0.745-1.132-1.929-1.78-3.382-1.82c-1.272-0.036-2.3,0.519-2.823,1.556c-0.911,1.809-0.205,4.714,1.757,7.229
						c1.761,2.256,3.029,3.734,4.555,3.736h0.002c1.015,0,1.977-0.652,3.12-2.111C285.283,234.593,287.985,231.146,285.824,228.162
						 M279.778,238.358c-0.891,0-2.096-1.45-3.463-3.202c-1.8-2.307-2.173-4.639-1.612-5.753c0.27-0.535,0.751-0.795,1.468-0.795
						c0.027,0,0.054,0,0.082,0.001c1.652,0.044,2.355,1.12,2.65,2.016c0.113,0.336,0.426,0.55,0.783,0.542
						c0.351-0.012,0.648-0.246,0.738-0.583c0.234-0.865,1.413-2.001,2.64-2.225c0.712-0.129,1.242,0.073,1.637,0.617
						c1.438,1.986-0.292,4.487-2.893,7.805C280.976,237.842,280.312,238.358,279.778,238.358L279.778,238.358z"/>
				</g>
			</g>
			<g>
				<path style="fill:#BC7D64;" d="M266.002,198.545c-2.278-0.074-3.749-0.085-3.753-0.085c-0.424-0.003-0.764-0.347-0.764-0.77
					v-15.995h-16.166v15.396c0,0.418-0.333,0.76-0.751,0.77c-1.493,0.038-2.917,0.082-4.283,0.135
					c1.048,5.809,4.968,16.145,13.483,18.939C255.196,216.361,263.434,212.485,266.002,198.545"/>
				<path style="fill:#9E5A43;" d="M255.984,201.943c3.394-0.442,6.471-1.662,9.207-3.422c-1.811-0.051-2.939-0.061-2.942-0.061
					c-0.424-0.003-0.764-0.347-0.764-0.77v-15.995h-16.166v15.396c0,0.418-0.333,0.76-0.751,0.77
					c-1.493,0.038-2.917,0.082-4.283,0.135c0.034,0.188,0.079,0.394,0.119,0.59C244.981,201.459,251.154,202.572,255.984,201.943z"
					/>
				<path style="fill:#3A1A04;" d="M267.506,197.318c-0.14-0.171-0.346-0.273-0.567-0.282c-1.737-0.062-3.117-0.092-3.915-0.106
					v-16.005c0-0.424-0.344-0.769-0.77-0.769h-17.706c-0.425,0-0.77,0.345-0.77,0.769v15.415c-1.544,0.042-3.014,0.093-4.425,0.151
					c-0.217,0.009-0.42,0.11-0.559,0.278c-0.139,0.166-0.201,0.385-0.17,0.601c0.855,5.975,5.077,18.078,14.936,21.112
					c0.073,0.022,0.15,0.035,0.226,0.035c0.078,0,0.156-0.013,0.23-0.036c0.445-0.14,10.903-3.612,13.654-20.553
					C267.707,197.712,267.647,197.489,267.506,197.318 M240.285,197.996c1.366-0.054,2.789-0.098,4.283-0.134
					c0.418-0.012,0.75-0.354,0.75-0.77v-15.396h16.167v15.994c0,0.423,0.341,0.767,0.764,0.77c0.005,0,1.475,0.011,3.753,0.085
					c-2.568,13.94-10.806,17.817-12.235,18.389C245.252,214.141,241.333,203.806,240.285,197.996"/>
			</g>
			<g>
				<path style="fill:#BC7D64;" d="M317.128,183.05c1.085-0.195,2.196-0.272,3.331-0.197c0.284,0.02,0.568,0.04,0.86,0.106
					c0.114,0.018,0.231,0.043,0.347,0.069c-0.311-2.338-2.359-17.675-3.377-23.699c-0.489-2.896-2.189-4.052-3.667-3.927
					c-1.573,0.141-3.14,1.764-3.101,5.072c0.06,5.114,1.727,16.977,2.679,23.358C315.154,183.495,316.134,183.232,317.128,183.05"/>
				<path style="fill:#BC7D64;" d="M331.986,177.926l1.778-18.116c0.22-2.232-0.06-3.795-0.829-4.643
					c-0.573-0.632-1.453-0.927-2.767-0.927c-1.922,0-2.784,1.845-3.687,7.898c-0.748,5.005-2.669,17.446-3.144,20.518
					c2.404-2.187,5.579-4.549,7.408-4.801C331.159,177.797,331.575,177.836,331.986,177.926"/>
				<path style="fill:#BC7D64;" d="M331.179,179.364c-0.076,0-0.15,0.005-0.222,0.016c-1.497,0.206-4.869,2.752-7.19,4.952
					c0.014,0.021,0.033,0.036,0.046,0.058c0.398,0.6,0.487,1.353,0.373,1.95c-0.091,0.617-0.318,1.154-0.595,1.627
					c-0.489,0.833-1.119,1.494-1.799,2.031c0.398,0.566,1.12,1.205,2.4,1.369c0.853,0.111,1.528,0.066,2.15-0.11
					c0.158-0.46,0.365-0.894,0.627-1.276c1.396-1.901,3.238-3.085,5.032-4.249c0.586-0.363,1.212-0.707,1.886-0.978
					c0.198-0.261,0.4-0.538,0.604-0.839c0.608-0.894,0.129-1.943-0.211-2.488C333.545,180.242,332.202,179.364,331.179,179.364"/>
				<path style="fill:#BC7D64;" d="M341.729,190.371c-0.327-0.915-0.8-1.793-1.422-2.509c-0.151-0.187-0.317-0.344-0.481-0.504
					l-0.254-0.207l-0.317-0.234c-0.415-0.303-0.818-0.578-1.234-0.786c-0.826-0.42-1.705-0.537-2.61-0.347
					c-0.907,0.176-1.786,0.635-2.642,1.168c-1.733,1.108-3.502,2.313-4.611,3.846c-0.519,0.751-0.744,1.524-0.525,2.217
					c0.241,0.733,0.74,1.541,1.275,1.979c0.549,0.468,1.205,0.612,1.87,0.533c0.642-0.09,1.356-0.385,1.982-0.598
					c2.51-0.918,4.073-1.53,4.164-1.345c0.084,0.173-1.314,1.106-3.774,2.288c-0.628,0.275-1.26,0.632-2.181,0.836
					c-0.89,0.188-2.043,0.009-2.888-0.672c-0.424-0.325-0.775-0.727-1.069-1.16c-0.292-0.458-0.534-0.844-0.731-1.449
					c-0.028-0.096-0.047-0.194-0.067-0.293c-0.019-0.084-0.036-0.168-0.048-0.252c-0.327,0.054-0.666,0.089-1.035,0.089
					c-0.354,0-0.73-0.024-1.133-0.076c-1.49-0.192-2.723-0.935-3.496-2.069c-0.483,0.242-0.966,0.435-1.401,0.584
					c-0.767,0.271-1.492,0.478-2.158,0.643c-1.3,0.317-2.365,0.487-3.125,0.56c-0.796,0.076-1.256,0.043-1.27-0.054
					c-0.035-0.204,1.588-0.607,4.102-1.484c0.626-0.22,1.307-0.475,2.017-0.78c0.731-0.31,1.417-0.633,2.053-1.141
					c0.634-0.499,1.227-1.141,1.639-1.88c0.416-0.721,0.595-1.61,0.237-2.106c-0.317-0.561-1.294-0.804-2.247-0.874
					c-0.97-0.064-1.981,0-2.974,0.18c-1.98,0.363-3.942,1.043-5.62,2.128c-0.865,0.511-1.593,1.189-2.267,1.894
					c-0.621,0.748-1.159,1.564-1.476,2.473c-0.644,1.781-0.483,3.897-0.107,5.865c0.386,1.995,1.159,3.919,2.149,5.693
					c0.991,1.775,2.237,3.424,3.774,4.743l0.559,0.513l0.617,0.44c0.417,0.281,0.81,0.607,1.249,0.855
					c0.893,0.467,1.767,0.98,2.74,1.266c0.931,0.406,1.94,0.544,2.927,0.764c0.493,0.124,1.01,0.09,1.513,0.144
					c0.507,0.021,1.011,0.099,1.52,0.074c2.044-0.004,4.065-0.367,5.927-1.11c1.858-0.749,3.544-1.908,4.915-3.397
					c1.386-1.478,2.508-3.211,3.489-5.036c0.492-0.912,0.947-1.852,1.395-2.8c0.449-0.974,0.886-1.861,1.144-2.824
					C342.384,194.256,342.389,192.21,341.729,190.371"/>
				<path style="fill:#9E5A43;" d="M320.501,190.825c-0.483,0.242-0.966,0.435-1.401,0.584c-0.767,0.271-1.492,0.478-2.158,0.643
					c-0.588,0.143-1.122,0.253-1.607,0.341c0.031,0.23-0.062,0.48-0.341,0.575c-6.759,2.301,5.46,10.657,8.483,11.224
					c3.906,0.732,10.325-4.492,11.303-9.145c-0.473,0.255-1.018,0.533-1.629,0.826c-0.628,0.275-1.26,0.632-2.181,0.836
					c-0.89,0.188-2.043,0.009-2.888-0.672c-0.424-0.325-0.775-0.727-1.069-1.16c-0.292-0.458-0.534-0.844-0.731-1.449
					c-0.028-0.096-0.047-0.194-0.067-0.293c-0.019-0.084-0.036-0.168-0.048-0.252c-0.327,0.054-0.666,0.089-1.035,0.089
					c-0.354,0-0.73-0.024-1.133-0.076C322.507,192.702,321.274,191.959,320.501,190.825z"/>
				<path style="fill:#3A1A04;" d="M343.089,189.889c-0.383-1.071-0.926-2.087-1.686-2.968c-0.183-0.225-0.398-0.432-0.614-0.638
					l-0.359-0.295l-0.322-0.237c-0.436-0.317-0.906-0.644-1.436-0.909c-0.783-0.412-1.716-0.614-2.621-0.585
					c0.475-1.087,0.321-2.382-0.461-3.641c-0.495-0.795-1.248-1.558-2.117-2.084l1.824-18.571c0.268-2.719-0.131-4.625-1.221-5.827
					c-0.873-0.964-2.152-1.433-3.907-1.433c-3.56,0-4.404,3.818-5.21,9.21c-0.532,3.564-1.659,10.903-2.436,15.939
					c-0.773-5.703-1.999-14.533-2.715-18.776c-0.648-3.846-3.224-5.386-5.322-5.205c-2.276,0.206-4.553,2.332-4.503,6.624
					c0.063,5.376,1.802,17.636,2.748,23.942c-0.6,0.28-1.189,0.586-1.752,0.948c-0.956,0.571-1.796,1.336-2.572,2.157
					c-0.73,0.87-1.369,1.842-1.751,2.936c-0.202,0.536-0.302,1.119-0.416,1.677c-0.032,0.56-0.125,1.127-0.101,1.681
					c0.006,1.115,0.146,2.21,0.353,3.287c0.421,2.157,1.243,4.205,2.304,6.111c1.062,1.903,2.405,3.679,4.073,5.115l0.61,0.556
					l0.671,0.481c0.454,0.309,0.883,0.66,1.363,0.931c0.975,0.515,1.934,1.07,2.995,1.387c1.02,0.437,2.115,0.597,3.189,0.831
					c0.537,0.131,1.091,0.101,1.635,0.159c0.548,0.023,1.095,0.103,1.641,0.078c2.178-0.005,4.391-0.394,6.448-1.216
					c2.057-0.828,3.934-2.127,5.424-3.743c1.508-1.607,2.696-3.454,3.713-5.344c0.51-0.948,0.975-1.909,1.428-2.869
					c0.434-0.942,0.934-1.961,1.225-3.042C343.844,194.415,343.862,192.033,343.089,189.889 M334.281,181.426
					c0.338,0.546,0.818,1.596,0.21,2.489c-0.203,0.3-0.406,0.578-0.604,0.839c-0.674,0.27-1.301,0.613-1.886,0.976
					c-1.794,1.166-3.636,2.35-5.032,4.25c-0.262,0.383-0.469,0.816-0.627,1.277c-0.622,0.175-1.297,0.219-2.15,0.11
					c-1.28-0.165-2.002-0.804-2.399-1.369c0.679-0.536,1.309-1.198,1.798-2.031c0.276-0.472,0.505-1.009,0.595-1.627
					c0.114-0.597,0.024-1.35-0.373-1.95c-0.013-0.022-0.031-0.037-0.046-0.058c2.321-2.2,5.693-4.746,7.19-4.954
					c0.072-0.009,0.147-0.014,0.222-0.014C332.202,179.365,333.545,180.243,334.281,181.426 M326.481,162.137
					c0.903-6.053,1.765-7.898,3.687-7.898c1.314,0,2.194,0.295,2.767,0.926c0.769,0.85,1.05,2.413,0.829,4.644l-1.778,18.116
					c-0.411-0.09-0.827-0.128-1.24-0.071c-1.829,0.252-5.004,2.614-7.408,4.802C323.813,179.582,325.733,167.141,326.481,162.137
					 M311.521,160.474c-0.039-3.309,1.528-4.931,3.101-5.072c1.478-0.125,3.178,1.03,3.667,3.927
					c1.018,6.024,3.065,21.362,3.377,23.699c-0.116-0.026-0.233-0.051-0.347-0.069c-0.291-0.066-0.575-0.087-0.86-0.107
					c-1.134-0.076-2.246,0.002-3.331,0.198c-0.994,0.183-1.974,0.446-2.93,0.783C313.248,177.45,311.581,165.587,311.521,160.474
					 M341.823,196.159c-0.258,0.962-0.695,1.852-1.144,2.823c-0.448,0.949-0.903,1.89-1.395,2.801
					c-0.981,1.824-2.103,3.558-3.489,5.035c-1.372,1.489-3.057,2.648-4.915,3.396c-1.862,0.743-3.885,1.107-5.927,1.111
					c-0.509,0.026-1.013-0.053-1.52-0.073c-0.503-0.056-1.02-0.022-1.513-0.146c-0.987-0.219-1.996-0.358-2.927-0.763
					c-0.973-0.287-1.847-0.801-2.74-1.267c-0.44-0.248-0.832-0.574-1.249-0.855l-0.616-0.44l-0.56-0.513
					c-1.537-1.319-2.783-2.969-3.774-4.743c-0.989-1.775-1.763-3.697-2.149-5.693c-0.376-1.969-0.537-4.085,0.107-5.867
					c0.317-0.908,0.854-1.723,1.476-2.471c0.675-0.705,1.402-1.382,2.267-1.895c1.677-1.086,3.64-1.765,5.62-2.128
					c0.993-0.18,2.005-0.244,2.974-0.18c0.952,0.07,1.93,0.314,2.247,0.874c0.359,0.496,0.18,1.386-0.237,2.107
					c-0.412,0.739-1.005,1.381-1.639,1.88c-0.637,0.507-1.322,0.831-2.053,1.141c-0.711,0.304-1.391,0.56-2.017,0.779
					c-2.514,0.878-4.137,1.28-4.102,1.486c0.014,0.095,0.474,0.129,1.27,0.052c0.759-0.072,1.825-0.243,3.125-0.56
					c0.666-0.165,1.391-0.371,2.158-0.641c0.435-0.15,0.918-0.342,1.401-0.585c0.773,1.134,2.006,1.878,3.496,2.069
					c0.403,0.052,0.779,0.077,1.133,0.077c0.37,0,0.708-0.037,1.035-0.09c0.012,0.086,0.029,0.169,0.048,0.252
					c0.021,0.099,0.039,0.198,0.067,0.293c0.197,0.605,0.439,0.992,0.731,1.449c0.294,0.433,0.646,0.836,1.069,1.16
					c0.845,0.681,1.998,0.861,2.888,0.674c0.921-0.206,1.553-0.563,2.181-0.838c2.46-1.181,3.858-2.115,3.774-2.287
					c-0.091-0.186-1.654,0.426-4.164,1.344c-0.626,0.212-1.34,0.507-1.982,0.599c-0.665,0.077-1.321-0.066-1.87-0.534
					c-0.534-0.439-1.033-1.246-1.275-1.979c-0.219-0.692,0.006-1.465,0.524-2.218c1.111-1.533,2.879-2.738,4.612-3.845
					c0.855-0.532,1.735-0.993,2.642-1.167c0.905-0.191,1.784-0.075,2.61,0.345c0.416,0.208,0.819,0.484,1.234,0.787l0.317,0.233
					l0.253,0.208c0.165,0.159,0.331,0.316,0.482,0.503c0.622,0.717,1.095,1.596,1.422,2.509
					C342.389,192.21,342.384,194.255,341.823,196.159"/>
			</g>
			<g>
				<path style="fill:#BC7D64;" d="M217.27,266.585c1.305,0.211,2.856,0.509,4.558,1.061c0.166,0.057,0.334,0.115,0.503,0.174
					c0.103-0.025,0.203-0.059,0.307-0.073c1.387-0.181,2.373-1.068,2.514-2.26c0.134-1.142-0.524-2.668-2.774-3.528
					c-5.102-1.947-9.3-3.309-13.217-3.629c-0.103-0.008-0.205-0.013-0.304-0.013c-3.127,0-4.32,4.213-6.578,14.887
					c-1.198,5.667-1.05,9.356,0.468,11.612c1.603,2.382,4.834,3.134,8.581,3.808c7.729,1.39,9.249,0.843,9.899-1.502
					c0.479-1.723-0.438-2.586-2.135-3.511c-1.715-0.08-3.206-0.329-4.454-0.577c-2.561-0.519-4.088-1.06-4.045-1.266
					c0.045-0.213,1.644-0.056,4.202,0.181c1.275,0.112,2.803,0.251,4.449,0.242c0.803-0.02,1.704-0.067,2.282-0.356
					c0.61-0.336,1.137-0.981,1.386-1.73c0.496-1.542-0.387-3.083-1.681-3.929c-0.07-0.049-0.146-0.085-0.218-0.132
					c-1.716-0.054-3.146-0.271-4.397-0.458c-1.424-0.234-2.526-0.475-3.238-0.679c-0.59-0.17-0.919-0.315-0.903-0.408
					c0.031-0.216,1.656-0.148,4.258-0.004c1.283,0.058,2.884,0.175,4.501,0.134c0.74-0.049,1.507-0.262,2.098-0.738
					c0.597-0.458,1.028-1.158,1.068-1.902c0.033-0.37-0.036-0.737-0.194-1.067c-0.057-0.174-0.181-0.317-0.273-0.478
					c-0.131-0.112-0.204-0.23-0.366-0.344c-0.613-0.468-1.446-0.815-2.216-1.106c-1.565-0.588-3.06-0.994-4.31-1.336
					c-2.509-0.67-4.085-1.068-4.053-1.285C213.016,266.166,214.657,266.181,217.27,266.585"/>
				<path style="fill:#3A1A04;" d="M226.681,265.668c0.193-1.64-0.675-3.97-3.754-5.146c-5.224-1.995-9.543-3.392-13.641-3.725
					c-5.029-0.427-6.336,5.8-8.513,16.088c-1.291,6.101-1.069,10.165,0.696,12.791c1.939,2.882,5.488,3.727,9.586,4.463
					c2.657,0.478,4.777,0.773,6.453,0.773c2.952,0,4.519-0.919,5.202-3.377c0.532-1.916-0.124-3.19-1.16-4.121
					c0.215-0.059,0.433-0.121,0.661-0.221c1.037-0.54,1.805-1.493,2.178-2.616c0.37-1.131,0.224-2.388-0.282-3.366
					c-0.289-0.579-0.68-1.056-1.109-1.46c0.435-0.15,0.861-0.352,1.251-0.648c0.903-0.658,1.625-1.749,1.699-3.014
					c0.052-0.624-0.073-1.261-0.336-1.806c-0.112-0.286-0.297-0.522-0.458-0.767c-0.21-0.218-0.443-0.477-0.669-0.629
					c-0.036-0.025-0.072-0.042-0.108-0.067C225.654,268.206,226.516,267.074,226.681,265.668 M225.152,265.488
					c-0.141,1.193-1.128,2.08-2.513,2.26c-0.105,0.014-0.206,0.048-0.309,0.073c-0.169-0.06-0.337-0.118-0.501-0.174
					c-1.704-0.552-3.253-0.85-4.56-1.061c-2.613-0.404-4.253-0.419-4.282-0.212c-0.031,0.218,1.543,0.615,4.054,1.285
					c1.248,0.342,2.744,0.747,4.309,1.336c0.77,0.291,1.603,0.639,2.216,1.106c0.163,0.112,0.235,0.231,0.366,0.344
					c0.09,0.161,0.215,0.305,0.272,0.478c0.158,0.329,0.227,0.697,0.194,1.067c-0.039,0.745-0.471,1.445-1.067,1.902
					c-0.593,0.477-1.358,0.689-2.099,0.738c-1.618,0.041-3.218-0.076-4.501-0.134c-2.601-0.143-4.226-0.211-4.258,0.004
					c-0.014,0.094,0.314,0.238,0.903,0.408c0.714,0.204,1.814,0.445,3.239,0.678c1.25,0.188,2.68,0.405,4.397,0.459
					c0.071,0.047,0.147,0.084,0.218,0.132c1.293,0.846,2.176,2.387,1.68,3.929c-0.248,0.748-0.775,1.393-1.386,1.73
					c-0.578,0.29-1.479,0.336-2.28,0.356c-1.646,0.009-3.175-0.13-4.45-0.242c-2.558-0.237-4.158-0.394-4.203-0.181
					c-0.043,0.204,1.484,0.746,4.045,1.266c1.249,0.247,2.741,0.497,4.455,0.577c1.696,0.926,2.613,1.788,2.134,3.511
					c-0.651,2.345-2.17,2.892-9.898,1.502c-3.748-0.675-6.979-1.426-8.582-3.808c-1.517-2.256-1.666-5.945-0.468-11.612
					c2.259-10.674,3.452-14.887,6.579-14.887c0.099,0,0.201,0.004,0.303,0.013c3.917,0.319,8.117,1.682,13.217,3.628
					C224.628,262.82,225.286,264.345,225.152,265.488"/>
			</g>
			<g>
				<g>
					<path style="fill:#BC7D64;" d="M206.328,138.404c-0.595-4.072-1.608-8.529-4.623-10.7c-1.359-0.979-3.058-1.466-5.148-1.466
						c-0.947,0-1.975,0.1-3.087,0.299c-6.107,1.093-10.05,7.706-8.976,15.056c0.538,3.694,2.266,7.308,4.737,9.918
						c2.53,2.669,5.46,3.917,8.249,3.507C203.257,154.174,207.475,146.255,206.328,138.404"/>
					<path style="fill:#9E5A43;" d="M196.628,141.594c1.046-2.033,4.731-4.808,1.988-6.926c-0.356-0.275-0.22-0.777,0.069-0.934
						c-2.054-1.951-6.795-1.297-8.037,1.459c-1.272,2.821-0.34,6.979,1.842,9.122c1.217,1.195,2.826,2.208,4.593,2.215
						c1.01,0.004,2.411-0.254,2.489-0.908C197.676,145.045,195.445,143.889,196.628,141.594z"/>
					<path style="fill:#3A1A04;" d="M207.852,138.182c-0.641-4.392-1.767-9.219-5.247-11.728c-2.331-1.678-5.406-2.147-9.407-1.431
						c-6.929,1.239-11.423,8.616-10.229,16.793c0.584,4.001,2.459,7.92,5.145,10.755c2.513,2.652,5.422,4.064,8.314,4.064
						c0.425,0,0.851-0.032,1.275-0.094C204.892,155.49,208.991,145.982,207.852,138.182 M189.231,151.51
						c-2.472-2.61-4.199-6.225-4.739-9.918c-1.072-7.35,2.871-13.962,8.978-15.056c1.113-0.199,2.141-0.299,3.088-0.299
						c2.089,0,3.789,0.487,5.148,1.466c3.014,2.17,4.028,6.628,4.624,10.7c1.146,7.851-3.071,15.769-8.849,16.614
						C194.689,155.427,191.759,154.18,189.231,151.51"/>
					<path style="fill:#3A1A04;" d="M190.149,136.406c-0.057-0.013-0.057-0.211-0.009-0.569c0.069-0.351,0.094-0.886,0.355-1.503
						c0.213-0.623,0.542-1.389,1.213-2.081c0.307-0.376,0.764-0.646,1.253-0.903c0.268-0.078,0.541-0.157,0.817-0.237
						c0.282-0.028,0.573-0.036,0.869-0.048c1.176,0.06,2.294,0.546,3.287,1.186c0.996,0.667,1.904,1.427,2.643,2.536
						c0.093,0.132,0.183,0.288,0.255,0.49c0.081,0.188,0.147,0.378,0.163,0.585c0.035,0.205,0.051,0.408,0.021,0.601
						c-0.013,0.199-0.041,0.391-0.101,0.56c-0.204,0.708-0.565,1.253-0.925,1.727c-0.731,0.938-1.53,1.666-2.151,2.343
						c-0.296,0.3-0.561,0.744-0.488,0.634c-0.014,0.054,0.124,0.433,0.272,0.692c0.324,0.574,0.727,1.08,1.06,1.51
						c0.649,0.794,1.122,1.374,1.533,1.879c0.664,0.854,0.611,1.07,0.452,1.248c-0.152,0.171-0.385,0.268-1.288-0.39
						c-0.449-0.335-1.069-0.851-1.879-1.721c-0.402-0.445-0.861-0.952-1.315-1.695c-0.106-0.208-0.229-0.376-0.321-0.646
						c-0.101-0.233-0.194-0.539-0.195-0.948c0.049-0.206,0.078-0.436,0.144-0.633c0.094-0.169,0.164-0.31,0.251-0.426
						c0.167-0.238,0.341-0.44,0.518-0.641c0.708-0.767,1.475-1.457,2.099-2.227c0.309-0.381,0.561-0.787,0.677-1.15
						c0.107-0.383,0.096-0.605-0.12-0.984c-0.478-0.8-1.29-1.589-2.101-2.184c-0.821-0.601-1.726-1.045-2.586-1.152
						c-0.862-0.128-1.638,0.174-2.2,0.684c-0.585,0.483-0.975,1.12-1.257,1.66c-0.334,0.522-0.46,1.02-0.63,1.329
						C190.317,136.248,190.208,136.419,190.149,136.406"/>
				</g>
				<g>
					<path style="fill:#9E5A43;" d="M308.564,123.82c-0.819-0.147-1.602-0.219-2.348-0.219c-1.993,0-3.723,0.521-5.165,1.56
						c-2.941,2.12-4.85,6.421-5.832,13.152c-1.078,7.382,2.535,13.382,8.591,14.267c2.794,0.406,5.72-0.839,8.25-3.508
						c2.472-2.609,4.199-6.224,4.738-9.918C317.923,131.453,314.383,124.862,308.564,123.82"/>
					<path style="fill:#3A1A04;" d="M308.833,122.304c-3.428-0.611-6.349-0.072-8.681,1.606c-3.298,2.377-5.41,7.014-6.456,14.179
						c-1.207,8.266,2.954,15,9.893,16.013c0.424,0.063,0.85,0.092,1.275,0.092c2.891,0,5.801-1.412,8.313-4.064
						c2.686-2.834,4.56-6.754,5.145-10.754C319.569,130.836,315.49,123.496,308.833,122.304 M316.799,139.154
						c-0.54,3.695-2.267,7.309-4.738,9.918c-2.529,2.669-5.456,3.914-8.25,3.508c-6.056-0.886-9.669-6.885-8.591-14.267
						c0.982-6.73,2.891-11.032,5.832-13.152c1.441-1.039,3.171-1.56,5.165-1.56c0.746,0,1.528,0.073,2.348,0.219
						C314.382,124.862,317.923,131.455,316.799,139.154"/>
					<path style="fill:#3A1A04;" d="M311.141,133.968c-0.058,0.013-0.167-0.158-0.319-0.475c-0.171-0.309-0.297-0.807-0.63-1.329
						c-0.283-0.54-0.674-1.177-1.259-1.66c-0.56-0.51-1.337-0.812-2.199-0.684c-0.859,0.107-1.765,0.55-2.586,1.152
						c-0.809,0.595-1.622,1.384-2.1,2.184c-0.215,0.379-0.226,0.6-0.119,0.984c0.114,0.364,0.367,0.77,0.675,1.15
						c0.624,0.771,1.391,1.461,2.098,2.227c0.178,0.201,0.353,0.403,0.52,0.641c0.087,0.116,0.156,0.257,0.252,0.426
						c0.066,0.197,0.094,0.427,0.144,0.633c-0.003,0.409-0.094,0.715-0.196,0.948c-0.093,0.269-0.215,0.438-0.321,0.645
						c-0.453,0.744-0.912,1.25-1.314,1.696c-0.811,0.869-1.429,1.386-1.879,1.721c-0.902,0.658-1.135,0.561-1.288,0.39
						c-0.158-0.178-0.211-0.394,0.453-1.248c0.409-0.504,0.883-1.084,1.53-1.879c0.335-0.43,0.738-0.936,1.06-1.51
						c0.151-0.259,0.287-0.637,0.273-0.692c0.073,0.111-0.191-0.334-0.488-0.633c-0.621-0.677-1.421-1.406-2.15-2.343
						c-0.361-0.475-0.721-1.019-0.925-1.726c-0.059-0.17-0.087-0.362-0.1-0.56c-0.031-0.193-0.014-0.397,0.02-0.602
						c0.015-0.207,0.082-0.397,0.162-0.585c0.074-0.202,0.163-0.358,0.257-0.49c0.737-1.109,1.647-1.869,2.641-2.536
						c0.994-0.64,2.112-1.127,3.288-1.186c0.297,0.013,0.587,0.019,0.87,0.048c0.276,0.08,0.549,0.16,0.816,0.238
						c0.49,0.256,0.947,0.527,1.255,0.903c0.671,0.693,0.998,1.459,1.212,2.082c0.262,0.616,0.286,1.152,0.355,1.503
						C311.199,133.756,311.197,133.954,311.141,133.968"/>
				</g>
				<g>
					<g>
						<path style="fill:#BC7D64;" d="M284.097,90.082c-0.124,0.004-0.249,0.007-0.373,0.007c-5.504,0-10.308-3.651-11.909-8.766
							c-3.339,5.189-9.03,8.339-15.291,8.339c-0.921,0-1.873-0.077-2.833-0.229c-2.154,4.054-6.418,6.643-11.024,6.643
							c-1.381,0-2.734-0.224-4.032-0.669c-2.449,6.316-8.515,10.505-15.341,10.505c-1.495,0-2.987-0.207-4.443-0.617
							c-2.222,6.19-8.156,10.232-14.844,9.926v36.299c0,20.742,18.763,37.617,41.826,37.617h10.52
							c23.062,0,41.826-16.875,41.826-37.617v-40.236c0-1.825-0.153-3.647-0.455-5.424
							C290.357,103.996,284.879,97.636,284.097,90.082"/>
						<path style="fill:#9E5A43;" d="M213.277,119.244c2.527-0.887,5.067-2.204,6.279-4.715c0.71-1.468,1.413-3.019,3.254-3.214
							c1.523-0.161,3.025,0.245,4.547,0.072c1.734-0.197,3.47-0.582,5.044-1.365c2.734-1.359,5.056-3.278,7.281-5.349
							c0.822-0.764,1.857-2.487,3.033-2.762c2.896-0.678,6.538,0.746,8.866-1.585c1.572-1.574,2.568-2.879,4.851-3.264
							c2.71-0.456,5.316,0.035,7.976-1.042c1.471-0.596,3.102-1.248,4.405-2.174c0.279-0.199,0.538-0.44,0.873-0.53
							c0.819-0.222,2.271,1.366,2.833,1.719c2.02,1.268,4.851,1.427,6.635,3.077c2.145,1.983,3.412,4.663,5.694,6.556
							c3.582,2.968,8.475,5.816,13.285,5.569c-0.048-1.473-0.168-2.94-0.412-4.376c-7.366-1.865-12.844-8.224-13.626-15.778
							c-0.124,0.004-0.249,0.007-0.373,0.007c-5.504,0-10.308-3.651-11.909-8.766c-3.339,5.189-9.03,8.339-15.291,8.339
							c-0.921,0-1.873-0.077-2.833-0.229c-2.154,4.054-6.418,6.643-11.024,6.643c-1.381,0-2.734-0.224-4.032-0.669
							c-2.449,6.316-8.515,10.505-15.341,10.505c-1.495,0-2.987-0.207-4.443-0.617c-2.222,6.19-8.156,10.232-14.844,9.926v4.66
							C207.069,120.564,210.461,120.232,213.277,119.244z"/>
						<path style="fill:#3A1A04;" d="M299.036,104.818c-0.108-0.169-0.273-0.296-0.476-0.341c-1.711-0.382-3.311-1.033-4.771-1.893
							c-1.557-0.975-3.121-2.27-4.466-3.934c-1.427-1.766-2.492-3.822-3.1-6.011c-0.166-0.543-0.244-1.108-0.372-1.661
							c-0.061-0.277-0.067-0.564-0.106-0.845l-0.175-1.598c0.043-0.217-0.178-0.124-0.314-0.134l-0.445,0.022l-0.845,0.042
							c-0.276,0.029-0.553-0.008-0.829-0.014c-0.556-0.008-1.104-0.11-1.646-0.21c-2.175-0.436-4.175-1.606-5.697-3.213
							c-0.766-0.801-1.382-1.741-1.86-2.737c-0.13-0.245-0.237-0.501-0.329-0.761c-0.101-0.283-0.184-0.386-0.336-1.129
							c-0.288-1.17-0.519-2.42-0.745-3.676l-1.412,2.601c-0.238,0.47-0.492,0.852-0.737,1.237c-0.115,0.194-0.249,0.373-0.383,0.555
							c-0.517,0.734-1.108,1.416-1.74,2.053c-1.259,1.283-2.743,2.337-4.349,3.138c-1.607,0.798-3.339,1.355-5.12,1.585
							c-0.89,0.114-1.791,0.165-2.687,0.152c-0.447-0.011-0.895-0.045-1.342-0.094l-0.668-0.089l-1.287-0.227l-0.441,0.852
							l-0.216,0.417l-0.133,0.221c-0.173,0.301-0.365,0.587-0.57,0.865c-0.407,0.557-0.86,1.081-1.371,1.548
							c-1.003,0.951-2.199,1.685-3.481,2.195c-1.288,0.491-2.666,0.743-4.049,0.731c-0.691-0.009-1.38-0.081-2.055-0.219
							c-0.339-0.07-0.674-0.155-1.003-0.255l-0.247-0.079l-0.49-0.177l-1.052-0.422l-0.541,1.429l-0.156,0.418
							c-0.04,0.115-0.1,0.22-0.149,0.332c-0.204,0.44-0.406,0.882-0.66,1.297c-0.465,0.853-1.055,1.631-1.672,2.379
							c-1.285,1.454-2.828,2.69-4.567,3.556c-1.739,0.857-3.637,1.405-5.577,1.536c-0.97,0.057-1.943,0.061-2.906-0.072
							c-0.481-0.061-0.959-0.145-1.434-0.252c-0.242-0.058-0.459-0.11-0.719-0.183c-0.492-0.14-0.988-0.309-1.479-0.465
							l-0.479,1.375l-0.141,0.405c-0.039,0.109-0.091,0.211-0.136,0.317c-0.179,0.423-0.369,0.842-0.599,1.24
							c-0.43,0.814-0.97,1.566-1.559,2.27c-0.588,0.681-1.242,1.309-1.949,1.868c-0.736,0.581-1.53,1.088-2.377,1.492
							c-2.07,1.031-4.216,1.413-6.162,1.433c-0.372-0.009-0.745-0.02-1.115-0.057c-0.057-0.005-0.109,0.011-0.164,0.018
							c-0.983-0.074-1.898-0.224-2.678-0.439c-2.196-0.591-3.56-1.393-4.031-1.503c-0.089-0.02-0.157-0.023-0.18,0.012
							c-0.128,0.139,1.097,1.544,3.845,2.624c0.695,0.266,1.49,0.498,2.361,0.658v36.523c0,21.591,19.453,39.156,43.365,39.156
							h10.52c23.912,0,43.366-17.565,43.366-39.156v-40.236c0-1.819-0.153-3.63-0.441-5.406c1.836,0.166,2.932-0.081,2.921-0.222
							C302.203,105.421,300.96,105.326,299.036,104.818 M298.178,151.52c0,20.741-18.763,37.616-41.826,37.616h-10.52
							c-23.063,0-41.826-16.874-41.826-37.616v-36.3c6.689,0.306,12.621-3.736,14.843-9.925c1.457,0.411,2.948,0.618,4.445,0.618
							c6.824,0,12.892-4.189,15.339-10.505c1.298,0.444,2.651,0.669,4.034,0.669c4.605,0,8.869-2.589,11.023-6.645
							c0.96,0.153,1.91,0.23,2.833,0.23c6.26,0,11.952-3.149,15.29-8.34c1.602,5.116,6.407,8.766,11.909,8.766
							c0.124,0,0.249-0.002,0.373-0.006c0.782,7.553,6.26,13.913,13.626,15.777c0.302,1.777,0.455,3.6,0.455,5.424V151.52z"/>
					</g>
					<g>
						<g>
							<path style="fill:#3A1A04;" d="M233.317,115.801c-0.57-0.425-1.362-0.953-2.544-1.366c-1.169-0.417-2.63-0.66-4.076-0.468
								c-1.432,0.231-2.797,0.776-3.816,1.512c-0.553,0.306-0.939,0.76-1.341,1.091c-0.404,0.333-0.683,0.706-0.919,1.009
								c-0.47,0.609-0.707,1.002-0.62,1.08c0.087,0.076,0.488-0.164,1.077-0.605c0.295-0.219,0.625-0.507,1.053-0.745
								c0.425-0.234,0.832-0.599,1.36-0.8c0.989-0.538,2.185-0.87,3.365-0.99c1.193-0.078,2.364,0.162,3.347,0.51
								c0.991,0.343,1.7,0.76,2.243,1.066c0.542,0.313,0.918,0.542,1.192,0.681c0.554,0.283,0.729,0.187,0.904,0.027
								c0.169-0.155,0.288-0.369-0.116-0.929C234.222,116.595,233.884,116.234,233.317,115.801"/>
							<path style="fill:#7A3522;" d="M216.244,150.515c-0.708,0.885-0.55,1.091-0.306,1.286c0.243,0.195,0.478,0.305,1.187-0.581
								c0.708-0.885,1.622-2.432,1.379-2.627C218.26,148.399,216.952,149.63,216.244,150.515"/>
							<path style="fill:#7A3522;" d="M220.221,150.9c-0.708,0.885-0.55,1.091-0.306,1.286c0.244,0.196,0.478,0.305,1.188-0.581
								c0.708-0.885,1.622-2.432,1.378-2.626C222.237,148.784,220.93,150.015,220.221,150.9"/>
							<path style="fill:#3A1A04;" d="M227.87,126.912c-1.703,0-3.2,1.587-4.071,3.987c-0.62-0.477-1.223-0.99-1.725-1.491
								c-1.009-0.968-1.682-1.843-1.902-1.726c-0.195,0.095,0.121,1.219,0.981,2.492c0.545,0.838,1.343,1.678,2.175,2.389
								c-0.213,0.995-0.334,2.071-0.334,3.202c0,4.89,2.182,8.853,4.876,8.853c2.693,0,4.875-3.963,4.875-8.853
								C232.745,130.874,230.563,126.912,227.87,126.912"/>
						</g>
						<g>
							<path style="fill:#3A1A04;" d="M276.595,114.455c1.271-0.35,2.604-0.22,3.724,0.166c2.267,0.813,3.614,2.38,3.832,2.156
								c0.09-0.076-0.174-0.5-0.698-1.166c-0.133-0.163-0.271-0.355-0.445-0.536c-0.2-0.169-0.407-0.343-0.622-0.523
								c-0.225-0.183-0.461-0.382-0.719-0.575c-0.291-0.151-0.592-0.308-0.898-0.467l-0.479-0.24
								c-0.17-0.062-0.352-0.101-0.531-0.152c-0.363-0.085-0.729-0.22-1.114-0.261c-0.391-0.021-0.785-0.04-1.179-0.062
								c-0.393,0.005-0.784,0.084-1.177,0.128c-1.558,0.278-2.967,0.956-4.08,1.67c-2.183,1.506-3.013,2.639-3.397,3.255
								c-0.369,0.637-0.24,0.837-0.058,0.979c0.187,0.144,0.381,0.22,0.944-0.175c0.573-0.375,1.484-1.295,3.437-2.642
								C274.129,115.376,275.324,114.761,276.595,114.455"/>
							<path style="fill:#7A3522;" d="M282.832,148.847c-0.708,0.885-0.55,1.091-0.306,1.286c0.242,0.195,0.478,0.305,1.188-0.581
								c0.708-0.886,1.621-2.432,1.377-2.627C284.848,146.731,283.54,147.962,282.832,148.847"/>
							<path style="fill:#7A3522;" d="M289.069,147.311c-0.245-0.195-1.551,1.035-2.259,1.921c-0.71,0.885-0.55,1.091-0.307,1.286
								c0.243,0.195,0.479,0.305,1.187-0.581C288.399,149.052,289.313,147.506,289.069,147.311"/>
							<path style="fill:#3A1A04;" d="M283.468,128.89c0.861-1.272,1.176-2.396,0.981-2.492c-0.22-0.116-0.891,0.759-1.9,1.726
								c-0.504,0.503-1.107,1.015-1.725,1.492c-0.873-2.4-2.37-3.988-4.073-3.988c-2.692,0-4.875,3.965-4.875,8.853
								c0,4.89,2.183,8.853,4.875,8.853c2.693,0,4.876-3.962,4.876-8.853c0-1.129-0.121-2.206-0.334-3.2
								C282.127,130.568,282.924,129.729,283.468,128.89"/>
						</g>
						<g>
							<path style="fill:#3A1A04;" d="M251.383,157.063c-0.379-0.365-0.834-0.79-1.286-1.274c-0.431-0.461-0.943-1.083-1.029-1.513
								c-0.117-0.283,0.241-0.898,0.66-1.367c0.416-0.485,0.869-0.906,1.246-1.264c0.765-0.718,1.25-1.193,1.145-1.383
								c-0.101-0.185-0.796-0.04-1.784,0.491c-0.492,0.269-1.061,0.63-1.637,1.163c-0.287,0.268-0.576,0.585-0.827,1.004
								c-0.254,0.376-0.467,1.05-0.322,1.672c0.139,0.602,0.424,1.016,0.702,1.357c0.276,0.35,0.574,0.623,0.861,0.876
								c0.579,0.494,1.138,0.853,1.624,1.123c0.976,0.536,1.659,0.708,1.767,0.525C252.615,158.287,252.146,157.793,251.383,157.063
								"/>
							<path style="fill:#A53245;" d="M264.744,166.172H242.7c-0.532,0-1.019,0.245-1.335,0.672
								c-0.317,0.428-0.41,0.965-0.255,1.473l0.965,3.165c1.207,3.961,4.798,6.621,8.938,6.621h5.418
								c4.139,0,7.732-2.66,8.939-6.621l0.963-3.165c0.156-0.509,0.064-1.045-0.253-1.473
								C265.763,166.417,265.276,166.172,264.744,166.172"/>
							<path style="fill:#3A1A04;" d="M267.316,165.927c-0.61-0.823-1.547-1.295-2.572-1.295H242.7
								c-1.024,0-1.963,0.472-2.572,1.295c-0.61,0.824-0.788,1.859-0.489,2.839l0.965,3.166c1.405,4.613,5.589,7.712,10.41,7.712
								h5.418c4.82,0,9.004-3.099,10.411-7.712l0.964-3.166C268.106,167.786,267.927,166.751,267.316,165.927 M266.333,168.318
								l-0.963,3.165c-1.207,3.96-4.799,6.621-8.939,6.621h-5.418c-4.139,0-7.731-2.661-8.938-6.621l-0.965-3.165
								c-0.155-0.509-0.061-1.046,0.254-1.474c0.317-0.428,0.804-0.672,1.336-0.672h22.044c0.532,0,1.019,0.244,1.337,0.672
								C266.397,167.272,266.489,167.809,266.333,168.318"/>
							<path style="fill:#FFFFFF;" d="M266.333,168.318L266.333,168.318c0.156-0.51,0.064-1.047-0.253-1.475
								c-0.317-0.427-0.804-0.671-1.337-0.671H242.7c-0.532,0-1.019,0.245-1.336,0.671c-0.316,0.429-0.41,0.965-0.254,1.475
								l0.402,1.317h24.421L266.333,168.318z"/>
							<path style="fill:#CA4456;" d="M244.956,175.87c1.69,1.445,3.815,2.232,6.056,2.232h5.419c2.2,0,4.295-0.763,5.975-2.167
								c-2.498-2.604-5.441-3.945-8.76-3.992C250.419,171.89,247.528,173.222,244.956,175.87"/>
							<path style="fill:#3A1A04;" d="M267.316,165.927c-0.61-0.823-1.547-1.295-2.572-1.295H242.7
								c-1.024,0-1.963,0.472-2.572,1.295c-0.61,0.824-0.788,1.859-0.489,2.839l0.568,1.863c0.099,0.325,0.397,0.546,0.735,0.546
								h8.309c-2.151,0.79-4.141,2.187-5.958,4.222c-0.272,0.305-0.259,0.769,0.031,1.059c2.057,2.055,4.789,3.187,7.69,3.187h5.418
								c2.854,0,5.554-1.104,7.604-3.105c0.293-0.285,0.31-0.75,0.041-1.057c-1.789-2.04-3.864-3.491-6.132-4.306h8.559
								c0.338,0,0.638-0.222,0.736-0.546l0.568-1.863C268.106,167.786,267.927,166.751,267.316,165.927 M262.406,175.937
								c-1.68,1.402-3.775,2.167-5.975,2.167h-5.418c-2.241,0-4.367-0.788-6.057-2.234c2.572-2.649,5.464-3.98,8.692-3.924
								C256.966,171.99,259.909,173.333,262.406,175.937 M266.333,168.318L266.333,168.318l-0.4,1.318h-24.421l-0.402-1.318
								c-0.155-0.509-0.061-1.046,0.254-1.474c0.317-0.428,0.804-0.672,1.336-0.672h22.044c0.532,0,1.019,0.244,1.337,0.672
								C266.397,167.272,266.489,167.809,266.333,168.318"/>
						</g>
					</g>
				</g>
			</g>
		</g>
	</g>
</g>
</svg>
